<svg viewBox="0 0 83.783356063 22.677165354" width="83.783356063pt" height="22.677165354pt" xmlns="http://www.w3.org/2000/svg" xmlns:xlink="http://www.w3.org/1999/xlink" xmlns:h5="http://www.w3.org/1999/xhtml"><g transform="translate(2.834645669 2.834645669)"><g><path fill="#666666" fill-rule="nonzero" transform="translate(33.145425354)" d="M 0 0m 8.503937008 0c -4.692336378 0 -8.503937008 3.81160063 -8.503937008 8.503937008c 0 4.692336378 3.81160063 8.503937008 8.503937008 8.503937008c 4.692336378 0 8.503937008 -3.81160063 8.503937008 -8.503937008c 0 -4.692336378 -3.81160063 -8.503937008 -8.503937008 -8.503937008Z "/><path fill="none" transform="translate(37.028762362 4.170243307)" d="M 0 0h 9.2412v 6.9666h -9.2412v -6.9666Z "/><g transform="translate(37.028762362 4.17024326)"><g transform="matrix(1 0 0 -1 0 6.9666)"><use xlink:href="#g885E4F585E429783146E0FD9B8A1C4AB" x="0" y="0" fill="#ffffff" fill-rule="nonzero"/></g></g><path fill="none" stroke="#000000" stroke-width="1" stroke-linecap="butt" stroke-linejoin="miter" stroke-miterlimit="4" transform="translate(50.15329937 8.503937008)" d="M 0 0h 15.442141108"/><path fill="#000000" fill-rule="nonzero" stroke="#000000" stroke-width="1" stroke-linecap="butt" stroke-linejoin="miter" stroke-miterlimit="4" transform="translate(64.603314425 7.015748031)" d="M 0 0m 3.968503937 1.488188976l -3.968503937 -1.488188976l 0.992125984 1.488188976l -0.992125984 1.488188976l 3.968503937 -1.488188976Z "/><path fill="none" transform="translate(72.830464724 3.975137008)" d="M 0 0h 5.2836v 9.0576h -5.2836v -9.0576Z "/><g transform="translate(72.830464677 3.975137008)"><g transform="matrix(1 0 0 -1 0 6.9666)"><use xlink:href="#gBBC5AB5C915341AAE08B71A18600EACF" x="0" y="0" fill="#000000" fill-rule="nonzero"/></g></g><path fill="none" stroke="#000000" stroke-width="1" stroke-linecap="butt" stroke-linejoin="miter" stroke-miterlimit="4" transform="translate(13.302905669 8.503937008)" d="M 0 0h 15.442141108"/><path fill="#000000" fill-rule="nonzero" stroke="#000000" stroke-width="1" stroke-linecap="butt" stroke-linejoin="miter" stroke-miterlimit="4" transform="translate(27.752920724 7.015748031)" d="M 0 0m 3.968503937 1.488188976l -3.968503937 -1.488188976l 0.992125984 1.488188976l -0.992125984 1.488188976l 3.968503937 -1.488188976Z "/><path fill="none" transform="translate(0 3.760937008)" d="M 0 0h 10.46826v 9.486h -10.46826v -9.486Z "/><g transform="translate(0 3.760937008)"><g transform="matrix(1 0 0 -1 0 6.9666)"><use xlink:href="#gC2825867C858554A2F7905767F89B2E6" x="0" y="0" fill="#000000" fill-rule="nonzero"/></g><g transform="matrix(1 0 0 -1 5.8344 9.486)"><use xlink:href="#g4BB713C96485E2D3442241FE6CA72226" x="0" y="0" fill="#000000" fill-rule="nonzero"/></g></g></g></g><defs><symbol id="g885E4F585E429783146E0FD9B8A1C4AB" overflow="visible"><path d="M 0 0m 8.4252 3.7536h -5.253c -0.153 0 -0.2346 -0.0816 -0.2346 -0.2346c 0 -0.1632 0.0816 -0.2448 0.2346 -0.2448h 5.253c 0.1632 0 0.2448 0.0816 0.2448 0.2448c 0 0.1224 -0.1122 0.2346 -0.2448 0.2346Z m 0 -1.9278h -5.253c -0.153 0 -0.2346 -0.0816 -0.2346 -0.2448c 0 -0.153 0.0816 -0.2346 0.2346 -0.2346h 5.253c 0.1632 0 0.2448 0.0816 0.2448 0.2346c 0 0.1326 -0.1122 0.2448 -0.2448 0.2448Z m -6.7014 1.9074c 0 0.3162 -0.2652 0.5712 -0.5814 0.5712c -0.3162 0 -0.5712 -0.255 -0.5712 -0.5712c 0 -0.306 0.2652 -0.561 0.5712 -0.561c 0.3162 0 0.5814 0.2448 0.5814 0.561Z m 0 -2.3664c 0 0.3162 -0.2652 0.561 -0.5814 0.561c -0.306 0 -0.5712 -0.255 -0.5712 -0.561c 0 -0.3162 0.255 -0.5712 0.5712 -0.5712c 0.3264 0 0.5814 0.2448 0.5814 0.5712Z "/></symbol><symbol id="gBBC5AB5C915341AAE08B71A18600EACF" overflow="visible"><path d="M 0 0m 1.6626 4.5084c -0.459 0 -0.816 -0.255 -1.071 -0.765c -0.1938 -0.3978 -0.2958 -0.6732 -0.2958 -0.8262c 0 -0.0918 0.051 -0.1428 0.1632 -0.1428c 0.1428 0 0.153 0.0612 0.1938 0.2142c 0.2346 0.8058 0.561 1.2138 0.9792 1.2138c 0.1326 0 0.204 -0.0918 0.204 -0.2754c 0 -0.1632 -0.051 -0.3978 -0.1632 -0.6936c -0.3876 -1.0506 -0.5814 -1.7544 -0.5814 -2.1318c 0 -0.7752 0.4794 -1.2342 1.2648 -1.2342c 0.3366 0 0.6528 0.1224 0.9384 0.3672c -0.357 -1.3464 -0.918 -2.0196 -1.683 -2.0196c -0.3468 0 -0.5814 0.1122 -0.7038 0.3366c 0.408 0.0204 0.612 0.2142 0.612 0.5814c 0 0.255 -0.1326 0.3876 -0.408 0.3876c -0.3774 0 -0.6018 -0.3162 -0.6018 -0.6936c 0 -0.561 0.51 -0.918 1.1016 -0.918c 1.173 0 2.1318 1.0812 2.3868 2.0808l 0.9588 3.8556c 0.0306 0.1122 0.0408 0.1938 0.0408 0.2448c 0 0.204 -0.1122 0.306 -0.3264 0.306c -0.1632 0 -0.2958 -0.0816 -0.3876 -0.2346c -0.0612 -0.2142 -0.1122 -0.3978 -0.1428 -0.5508l -0.6528 -2.6214c -0.102 -0.3672 -0.6426 -0.8262 -1.1016 -0.8262c -0.3876 0 -0.5814 0.255 -0.5814 0.7752c 0 0.4284 0.1734 1.0812 0.51 1.9584c 0.1326 0.357 0.204 0.6018 0.204 0.7446c 0 0.4998 -0.357 0.867 -0.8568 0.867Z "/></symbol><symbol id="gC2825867C858554A2F7905767F89B2E6" overflow="visible"><path d="M 0 0m 5.3754 3.8046c 0 0.4692 -0.459 0.7038 -0.969 0.7038c -0.4386 0 -0.7854 -0.2346 -1.0506 -0.7038c -0.2142 0.4692 -0.5712 0.7038 -1.0914 0.7038c -0.4998 0 -0.9078 -0.2346 -1.2342 -0.6936c -0.2754 -0.3978 -0.4182 -0.6936 -0.4182 -0.8874c 0 -0.0918 0.051 -0.1428 0.153 -0.1428c 0.0918 0 0.153 0.051 0.1734 0.1428c 0.1938 0.5916 0.6222 1.2852 1.3056 1.2852c 0.3366 0 0.4998 -0.2142 0.4998 -0.6324c 0 -0.2142 -0.1836 -1.0098 -0.5406 -2.3766c -0.1734 -0.6834 -0.4794 -1.02 -0.918 -1.02c -0.1428 0 -0.2754 0.0306 -0.3876 0.0816c 0.2652 0.102 0.3978 0.2856 0.3978 0.5508c 0 0.2652 -0.1326 0.3978 -0.408 0.3978c -0.3366 0 -0.5916 -0.2856 -0.5916 -0.6222c 0 -0.4692 0.4794 -0.7038 0.9792 -0.7038c 0.4284 0 0.7752 0.2346 1.0506 0.7038c 0.1938 -0.4692 0.561 -0.7038 1.0914 -0.7038c 0.4896 0 0.8976 0.2346 1.224 0.6936c 0.2754 0.3978 0.4182 0.6936 0.4182 0.8874c 0 0.0918 -0.051 0.1428 -0.153 0.1428c -0.0918 0 -0.1428 -0.051 -0.1734 -0.1428c -0.1734 -0.5814 -0.6324 -1.2852 -1.2954 -1.2852c -0.3366 0 -0.51 0.204 -0.51 0.6222c 0 0.1326 0.051 0.4182 0.1632 0.8772l 0.3468 1.377c 0.1938 0.765 0.51 1.1526 0.9588 1.1526c 0.1428 0 0.2754 -0.0306 0.3876 -0.0816c -0.2754 -0.0918 -0.408 -0.2754 -0.408 -0.5508c 0 -0.2652 0.1428 -0.3978 0.4182 -0.3978c 0.3264 0 0.5814 0.2958 0.5814 0.6222Z "/></symbol><symbol id="g4BB713C96485E2D3442241FE6CA72226" overflow="visible"><path d="M 0 0m 2.16342 4.74096c -0.30702 -0.29988 -0.76398 -0.44982 -1.38516 -0.44982v -0.31416c 0.42126 0 0.75684 0.06426 1.01388 0.18564v -3.55572c 0 -0.09282 -0.00714 -0.14994 -0.02856 -0.1785c -0.0357 -0.07854 -0.2499 -0.12138 -0.6426 -0.12138h -0.29274v -0.30702l 1.27092 0.02856l 1.27806 -0.02856v 0.30702h -0.29274c -0.3927 0 -0.6069 0.04284 -0.64974 0.12138c -0.01428 0.02856 -0.02142 0.08568 -0.02142 0.1785v 3.90558c 0 0.19278 -0.02856 0.22848 -0.2499 0.22848Z "/></symbol></defs></svg>