<svg viewBox="0 0 120.188976378 81.496062992" width="120.188976378pt" height="81.496062992pt" xmlns="http://www.w3.org/2000/svg" xmlns:xlink="http://www.w3.org/1999/xlink" xmlns:h5="http://www.w3.org/1999/xhtml"><g transform="translate(1.417322835 1.417322835)"><path fill="none" stroke="#000000" stroke-width="1.417322835" stroke-linecap="butt" stroke-linejoin="miter" stroke-miterlimit="4" transform="translate(3.401574803 3.401574803)" d="M 0 0v 71.858267717h 110.551181102v -71.858267717h -110.551181102Z "/><path fill="#ffffff" fill-rule="nonzero" transform="translate(3.401574803 3.401574803)" d="M 0 0v 71.858267717h 110.551181102v -71.858267717h -110.551181102Z "/><path fill="#abebb3" fill-rule="nonzero" transform="translate(21.826771654 15.377952756)" d="M 0 0l 18.42519685 11.976377953h -18.42519685v -11.976377953Z "/><path fill="#abebb3" fill-rule="nonzero" transform="translate(3.401574803 39.330708661)" d="M 0 0h 18.42519685v 11.976377953l -18.42519685 -11.976377953Z "/><path fill="#abebb3" fill-rule="nonzero" transform="translate(21.826771654 51.307086614)" d="M 0 0l 18.42519685 11.976377953h -18.42519685v -11.976377953Z "/><path fill="#abebb3" fill-rule="nonzero" transform="translate(58.677165354 63.283464567)" d="M 0 0l 18.42519685 11.976377953h -18.42519685v -11.976377953Z "/><path fill="#abebb3" fill-rule="nonzero" transform="translate(95.527559055 63.283464567)" d="M 0 0l 18.42519685 11.976377953h -18.42519685v -11.976377953Z "/><path fill="none" stroke="#666666" stroke-width="0.708661417" stroke-linecap="butt" stroke-linejoin="miter" stroke-miterlimit="4" transform="translate(3.401574803 3.401574803)" d="M 0 0h 18.42519685"/><path fill="none" stroke="#666666" stroke-width="0.708661417" stroke-linecap="butt" stroke-linejoin="miter" stroke-miterlimit="4" transform="translate(3.401574803 3.401574803)" d="M 0 0v 11.976377953"/><path fill="none" stroke="#666666" stroke-width="0.566929134" stroke-linecap="butt" stroke-linejoin="miter" stroke-miterlimit="4" transform="translate(3.401574803 3.401574803)" d="M 0 0l 18.42519685 11.976377953"/><path fill="#ff4136" fill-rule="nonzero" stroke="#b22e26" stroke-width="0.850393701" stroke-linecap="butt" stroke-linejoin="miter" stroke-miterlimit="4" d="M 0 0m 3.401574803 0c -1.876934551 0 -3.401574803 1.524640252 -3.401574803 3.401574803c 0 1.876934551 1.524640252 3.401574803 3.401574803 3.401574803c 1.876934551 0 3.401574803 -1.524640252 3.401574803 -3.401574803c 0 -1.876934551 -1.524640252 -3.401574803 -3.401574803 -3.401574803Z "/><path fill="none" stroke="#666666" stroke-width="0.708661417" stroke-linecap="butt" stroke-linejoin="miter" stroke-miterlimit="4" transform="translate(21.826771654 3.401574803)" d="M 0 0h 18.42519685"/><path fill="none" stroke="#666666" stroke-width="0.708661417" stroke-linecap="butt" stroke-linejoin="miter" stroke-miterlimit="4" transform="translate(21.826771654 3.401574803)" d="M 0 0v 11.976377953"/><path fill="none" stroke="#666666" stroke-width="0.566929134" stroke-linecap="butt" stroke-linejoin="miter" stroke-miterlimit="4" transform="translate(21.826771654 3.401574803)" d="M 0 0l 18.42519685 11.976377953"/><path fill="#0074d9" fill-rule="nonzero" stroke="#005198" stroke-width="0.850393701" stroke-linecap="butt" stroke-linejoin="miter" stroke-miterlimit="4" transform="translate(18.42519685)" d="M 0 0m 3.401574803 0c -1.876934551 0 -3.401574803 1.524640252 -3.401574803 3.401574803c 0 1.876934551 1.524640252 3.401574803 3.401574803 3.401574803c 1.876934551 0 3.401574803 -1.524640252 3.401574803 -3.401574803c 0 -1.876934551 -1.524640252 -3.401574803 -3.401574803 -3.401574803Z "/><path fill="none" stroke="#666666" stroke-width="0.708661417" stroke-linecap="butt" stroke-linejoin="miter" stroke-miterlimit="4" transform="translate(40.251968504 3.401574803)" d="M 0 0h 18.42519685"/><path fill="none" stroke="#666666" stroke-width="0.708661417" stroke-linecap="butt" stroke-linejoin="miter" stroke-miterlimit="4" transform="translate(40.251968504 3.401574803)" d="M 0 0v 11.976377953"/><path fill="none" stroke="#666666" stroke-width="0.566929134" stroke-linecap="butt" stroke-linejoin="miter" stroke-miterlimit="4" transform="translate(40.251968504 3.401574803)" d="M 0 0l 18.42519685 11.976377953"/><path fill="#0074d9" fill-rule="nonzero" stroke="#005198" stroke-width="0.850393701" stroke-linecap="butt" stroke-linejoin="miter" stroke-miterlimit="4" transform="translate(36.850393701)" d="M 0 0m 3.401574803 0c -1.876934551 0 -3.401574803 1.524640252 -3.401574803 3.401574803c 0 1.876934551 1.524640252 3.401574803 3.401574803 3.401574803c 1.876934551 0 3.401574803 -1.524640252 3.401574803 -3.401574803c 0 -1.876934551 -1.524640252 -3.401574803 -3.401574803 -3.401574803Z "/><path fill="none" stroke="#666666" stroke-width="0.708661417" stroke-linecap="butt" stroke-linejoin="miter" stroke-miterlimit="4" transform="translate(58.677165354 3.401574803)" d="M 0 0h 18.42519685"/><path fill="none" stroke="#666666" stroke-width="0.708661417" stroke-linecap="butt" stroke-linejoin="miter" stroke-miterlimit="4" transform="translate(58.677165354 3.401574803)" d="M 0 0v 11.976377953"/><path fill="none" stroke="#666666" stroke-width="0.566929134" stroke-linecap="butt" stroke-linejoin="miter" stroke-miterlimit="4" transform="translate(58.677165354 3.401574803)" d="M 0 0l 18.42519685 11.976377953"/><path fill="#ff4136" fill-rule="nonzero" stroke="#b22e26" stroke-width="0.850393701" stroke-linecap="butt" stroke-linejoin="miter" stroke-miterlimit="4" transform="translate(55.275590551)" d="M 0 0m 3.401574803 0c -1.876934551 0 -3.401574803 1.524640252 -3.401574803 3.401574803c 0 1.876934551 1.524640252 3.401574803 3.401574803 3.401574803c 1.876934551 0 3.401574803 -1.524640252 3.401574803 -3.401574803c 0 -1.876934551 -1.524640252 -3.401574803 -3.401574803 -3.401574803Z "/><path fill="none" stroke="#666666" stroke-width="0.708661417" stroke-linecap="butt" stroke-linejoin="miter" stroke-miterlimit="4" transform="translate(77.102362205 3.401574803)" d="M 0 0h 18.42519685"/><path fill="none" stroke="#666666" stroke-width="0.708661417" stroke-linecap="butt" stroke-linejoin="miter" stroke-miterlimit="4" transform="translate(77.102362205 3.401574803)" d="M 0 0v 11.976377953"/><path fill="none" stroke="#666666" stroke-width="0.566929134" stroke-linecap="butt" stroke-linejoin="miter" stroke-miterlimit="4" transform="translate(77.102362205 3.401574803)" d="M 0 0l 18.42519685 11.976377953"/><path fill="#ff4136" fill-rule="nonzero" stroke="#b22e26" stroke-width="0.850393701" stroke-linecap="butt" stroke-linejoin="miter" stroke-miterlimit="4" transform="translate(73.700787402)" d="M 0 0m 3.401574803 0c -1.876934551 0 -3.401574803 1.524640252 -3.401574803 3.401574803c 0 1.876934551 1.524640252 3.401574803 3.401574803 3.401574803c 1.876934551 0 3.401574803 -1.524640252 3.401574803 -3.401574803c 0 -1.876934551 -1.524640252 -3.401574803 -3.401574803 -3.401574803Z "/><path fill="none" stroke="#666666" stroke-width="0.708661417" stroke-linecap="butt" stroke-linejoin="miter" stroke-miterlimit="4" transform="translate(95.527559055 3.401574803)" d="M 0 0h 18.42519685"/><path fill="none" stroke="#666666" stroke-width="0.708661417" stroke-linecap="butt" stroke-linejoin="miter" stroke-miterlimit="4" transform="translate(95.527559055 3.401574803)" d="M 0 0v 11.976377953"/><path fill="none" stroke="#666666" stroke-width="0.566929134" stroke-linecap="butt" stroke-linejoin="miter" stroke-miterlimit="4" transform="translate(95.527559055 3.401574803)" d="M 0 0l 18.42519685 11.976377953"/><path fill="#ff4136" fill-rule="nonzero" stroke="#b22e26" stroke-width="0.850393701" stroke-linecap="butt" stroke-linejoin="miter" stroke-miterlimit="4" transform="translate(92.125984252)" d="M 0 0m 3.401574803 0c -1.876934551 0 -3.401574803 1.524640252 -3.401574803 3.401574803c 0 1.876934551 1.524640252 3.401574803 3.401574803 3.401574803c 1.876934551 0 3.401574803 -1.524640252 3.401574803 -3.401574803c 0 -1.876934551 -1.524640252 -3.401574803 -3.401574803 -3.401574803Z "/><path fill="none" stroke="#666666" stroke-width="0.708661417" stroke-linecap="butt" stroke-linejoin="miter" stroke-miterlimit="4" transform="translate(113.952755906 3.401574803)" d="M 0 0v 11.976377953"/><path fill="#ff4136" fill-rule="nonzero" stroke="#b22e26" stroke-width="0.850393701" stroke-linecap="butt" stroke-linejoin="miter" stroke-miterlimit="4" transform="translate(110.551181102)" d="M 0 0m 3.401574803 0c -1.876934551 0 -3.401574803 1.524640252 -3.401574803 3.401574803c 0 1.876934551 1.524640252 3.401574803 3.401574803 3.401574803c 1.876934551 0 3.401574803 -1.524640252 3.401574803 -3.401574803c 0 -1.876934551 -1.524640252 -3.401574803 -3.401574803 -3.401574803Z "/><path fill="none" stroke="#666666" stroke-width="0.708661417" stroke-linecap="butt" stroke-linejoin="miter" stroke-miterlimit="4" transform="translate(3.401574803 15.377952756)" d="M 0 0h 18.42519685"/><path fill="none" stroke="#666666" stroke-width="0.708661417" stroke-linecap="butt" stroke-linejoin="miter" stroke-miterlimit="4" transform="translate(3.401574803 15.377952756)" d="M 0 0v 11.976377953"/><path fill="none" stroke="#666666" stroke-width="0.566929134" stroke-linecap="butt" stroke-linejoin="miter" stroke-miterlimit="4" transform="translate(3.401574803 15.377952756)" d="M 0 0l 18.42519685 11.976377953"/><path fill="#ff4136" fill-rule="nonzero" stroke="#b22e26" stroke-width="0.850393701" stroke-linecap="butt" stroke-linejoin="miter" stroke-miterlimit="4" transform="translate(0 11.976377953)" d="M 0 0m 3.401574803 0c -1.876934551 0 -3.401574803 1.524640252 -3.401574803 3.401574803c 0 1.876934551 1.524640252 3.401574803 3.401574803 3.401574803c 1.876934551 0 3.401574803 -1.524640252 3.401574803 -3.401574803c 0 -1.876934551 -1.524640252 -3.401574803 -3.401574803 -3.401574803Z "/><path fill="none" stroke="#666666" stroke-width="0.708661417" stroke-linecap="butt" stroke-linejoin="miter" stroke-miterlimit="4" transform="translate(21.826771654 15.377952756)" d="M 0 0h 18.42519685"/><path fill="none" stroke="#666666" stroke-width="0.708661417" stroke-linecap="butt" stroke-linejoin="miter" stroke-miterlimit="4" transform="translate(21.826771654 15.377952756)" d="M 0 0v 11.976377953"/><path fill="none" stroke="#666666" stroke-width="0.566929134" stroke-linecap="butt" stroke-linejoin="miter" stroke-miterlimit="4" transform="translate(21.826771654 15.377952756)" d="M 0 0l 18.42519685 11.976377953"/><path fill="#ff4136" fill-rule="nonzero" stroke="#b22e26" stroke-width="0.850393701" stroke-linecap="butt" stroke-linejoin="miter" stroke-miterlimit="4" transform="translate(18.42519685 11.976377953)" d="M 0 0m 3.401574803 0c -1.876934551 0 -3.401574803 1.524640252 -3.401574803 3.401574803c 0 1.876934551 1.524640252 3.401574803 3.401574803 3.401574803c 1.876934551 0 3.401574803 -1.524640252 3.401574803 -3.401574803c 0 -1.876934551 -1.524640252 -3.401574803 -3.401574803 -3.401574803Z "/><path fill="none" stroke="#666666" stroke-width="0.708661417" stroke-linecap="butt" stroke-linejoin="miter" stroke-miterlimit="4" transform="translate(40.251968504 15.377952756)" d="M 0 0h 18.42519685"/><path fill="none" stroke="#666666" stroke-width="0.708661417" stroke-linecap="butt" stroke-linejoin="miter" stroke-miterlimit="4" transform="translate(40.251968504 15.377952756)" d="M 0 0v 11.976377953"/><path fill="none" stroke="#666666" stroke-width="0.566929134" stroke-linecap="butt" stroke-linejoin="miter" stroke-miterlimit="4" transform="translate(40.251968504 15.377952756)" d="M 0 0l 18.42519685 11.976377953"/><path fill="#ff4136" fill-rule="nonzero" stroke="#b22e26" stroke-width="0.850393701" stroke-linecap="butt" stroke-linejoin="miter" stroke-miterlimit="4" transform="translate(36.850393701 11.976377953)" d="M 0 0m 3.401574803 0c -1.876934551 0 -3.401574803 1.524640252 -3.401574803 3.401574803c 0 1.876934551 1.524640252 3.401574803 3.401574803 3.401574803c 1.876934551 0 3.401574803 -1.524640252 3.401574803 -3.401574803c 0 -1.876934551 -1.524640252 -3.401574803 -3.401574803 -3.401574803Z "/><path fill="none" stroke="#666666" stroke-width="0.708661417" stroke-linecap="butt" stroke-linejoin="miter" stroke-miterlimit="4" transform="translate(58.677165354 15.377952756)" d="M 0 0h 18.42519685"/><path fill="none" stroke="#666666" stroke-width="0.708661417" stroke-linecap="butt" stroke-linejoin="miter" stroke-miterlimit="4" transform="translate(58.677165354 15.377952756)" d="M 0 0v 11.976377953"/><path fill="none" stroke="#666666" stroke-width="0.566929134" stroke-linecap="butt" stroke-linejoin="miter" stroke-miterlimit="4" transform="translate(58.677165354 15.377952756)" d="M 0 0l 18.42519685 11.976377953"/><path fill="#0074d9" fill-rule="nonzero" stroke="#005198" stroke-width="0.850393701" stroke-linecap="butt" stroke-linejoin="miter" stroke-miterlimit="4" transform="translate(55.275590551 11.976377953)" d="M 0 0m 3.401574803 0c -1.876934551 0 -3.401574803 1.524640252 -3.401574803 3.401574803c 0 1.876934551 1.524640252 3.401574803 3.401574803 3.401574803c 1.876934551 0 3.401574803 -1.524640252 3.401574803 -3.401574803c 0 -1.876934551 -1.524640252 -3.401574803 -3.401574803 -3.401574803Z "/><path fill="none" stroke="#666666" stroke-width="0.708661417" stroke-linecap="butt" stroke-linejoin="miter" stroke-miterlimit="4" transform="translate(77.102362205 15.377952756)" d="M 0 0h 18.42519685"/><path fill="none" stroke="#666666" stroke-width="0.708661417" stroke-linecap="butt" stroke-linejoin="miter" stroke-miterlimit="4" transform="translate(77.102362205 15.377952756)" d="M 0 0v 11.976377953"/><path fill="none" stroke="#666666" stroke-width="0.566929134" stroke-linecap="butt" stroke-linejoin="miter" stroke-miterlimit="4" transform="translate(77.102362205 15.377952756)" d="M 0 0l 18.42519685 11.976377953"/><path fill="#ff4136" fill-rule="nonzero" stroke="#b22e26" stroke-width="0.850393701" stroke-linecap="butt" stroke-linejoin="miter" stroke-miterlimit="4" transform="translate(73.700787402 11.976377953)" d="M 0 0m 3.401574803 0c -1.876934551 0 -3.401574803 1.524640252 -3.401574803 3.401574803c 0 1.876934551 1.524640252 3.401574803 3.401574803 3.401574803c 1.876934551 0 3.401574803 -1.524640252 3.401574803 -3.401574803c 0 -1.876934551 -1.524640252 -3.401574803 -3.401574803 -3.401574803Z "/><path fill="none" stroke="#666666" stroke-width="0.708661417" stroke-linecap="butt" stroke-linejoin="miter" stroke-miterlimit="4" transform="translate(95.527559055 15.377952756)" d="M 0 0h 18.42519685"/><path fill="none" stroke="#666666" stroke-width="0.708661417" stroke-linecap="butt" stroke-linejoin="miter" stroke-miterlimit="4" transform="translate(95.527559055 15.377952756)" d="M 0 0v 11.976377953"/><path fill="none" stroke="#666666" stroke-width="0.566929134" stroke-linecap="butt" stroke-linejoin="miter" stroke-miterlimit="4" transform="translate(95.527559055 15.377952756)" d="M 0 0l 18.42519685 11.976377953"/><path fill="#ffdc00" fill-rule="nonzero" stroke="#b29a00" stroke-width="0.850393701" stroke-linecap="butt" stroke-linejoin="miter" stroke-miterlimit="4" transform="translate(92.125984252 11.976377953)" d="M 0 0m 3.401574803 0c -1.876934551 0 -3.401574803 1.524640252 -3.401574803 3.401574803c 0 1.876934551 1.524640252 3.401574803 3.401574803 3.401574803c 1.876934551 0 3.401574803 -1.524640252 3.401574803 -3.401574803c 0 -1.876934551 -1.524640252 -3.401574803 -3.401574803 -3.401574803Z "/><path fill="none" stroke="#666666" stroke-width="0.708661417" stroke-linecap="butt" stroke-linejoin="miter" stroke-miterlimit="4" transform="translate(113.952755906 15.377952756)" d="M 0 0v 11.976377953"/><path fill="#ff4136" fill-rule="nonzero" stroke="#b22e26" stroke-width="0.850393701" stroke-linecap="butt" stroke-linejoin="miter" stroke-miterlimit="4" transform="translate(110.551181102 11.976377953)" d="M 0 0m 3.401574803 0c -1.876934551 0 -3.401574803 1.524640252 -3.401574803 3.401574803c 0 1.876934551 1.524640252 3.401574803 3.401574803 3.401574803c 1.876934551 0 3.401574803 -1.524640252 3.401574803 -3.401574803c 0 -1.876934551 -1.524640252 -3.401574803 -3.401574803 -3.401574803Z "/><path fill="none" stroke="#666666" stroke-width="0.708661417" stroke-linecap="butt" stroke-linejoin="miter" stroke-miterlimit="4" transform="translate(3.401574803 27.354330709)" d="M 0 0h 18.42519685"/><path fill="none" stroke="#666666" stroke-width="0.708661417" stroke-linecap="butt" stroke-linejoin="miter" stroke-miterlimit="4" transform="translate(3.401574803 27.354330709)" d="M 0 0v 11.976377953"/><path fill="none" stroke="#666666" stroke-width="0.566929134" stroke-linecap="butt" stroke-linejoin="miter" stroke-miterlimit="4" transform="translate(3.401574803 27.354330709)" d="M 0 0l 18.42519685 11.976377953"/><path fill="#ffdc00" fill-rule="nonzero" stroke="#b29a00" stroke-width="0.850393701" stroke-linecap="butt" stroke-linejoin="miter" stroke-miterlimit="4" transform="translate(0 23.952755906)" d="M 0 0m 3.401574803 0c -1.876934551 0 -3.401574803 1.524640252 -3.401574803 3.401574803c 0 1.876934551 1.524640252 3.401574803 3.401574803 3.401574803c 1.876934551 0 3.401574803 -1.524640252 3.401574803 -3.401574803c 0 -1.876934551 -1.524640252 -3.401574803 -3.401574803 -3.401574803Z "/><path fill="none" stroke="#666666" stroke-width="0.708661417" stroke-linecap="butt" stroke-linejoin="miter" stroke-miterlimit="4" transform="translate(21.826771654 27.354330709)" d="M 0 0h 18.42519685"/><path fill="none" stroke="#666666" stroke-width="0.708661417" stroke-linecap="butt" stroke-linejoin="miter" stroke-miterlimit="4" transform="translate(21.826771654 27.354330709)" d="M 0 0v 11.976377953"/><path fill="none" stroke="#666666" stroke-width="0.566929134" stroke-linecap="butt" stroke-linejoin="miter" stroke-miterlimit="4" transform="translate(21.826771654 27.354330709)" d="M 0 0l 18.42519685 11.976377953"/><path fill="#ffdc00" fill-rule="nonzero" stroke="#b29a00" stroke-width="0.850393701" stroke-linecap="butt" stroke-linejoin="miter" stroke-miterlimit="4" transform="translate(18.42519685 23.952755906)" d="M 0 0m 3.401574803 0c -1.876934551 0 -3.401574803 1.524640252 -3.401574803 3.401574803c 0 1.876934551 1.524640252 3.401574803 3.401574803 3.401574803c 1.876934551 0 3.401574803 -1.524640252 3.401574803 -3.401574803c 0 -1.876934551 -1.524640252 -3.401574803 -3.401574803 -3.401574803Z "/><path fill="none" stroke="#666666" stroke-width="0.708661417" stroke-linecap="butt" stroke-linejoin="miter" stroke-miterlimit="4" transform="translate(40.251968504 27.354330709)" d="M 0 0h 18.42519685"/><path fill="none" stroke="#666666" stroke-width="0.708661417" stroke-linecap="butt" stroke-linejoin="miter" stroke-miterlimit="4" transform="translate(40.251968504 27.354330709)" d="M 0 0v 11.976377953"/><path fill="none" stroke="#666666" stroke-width="0.566929134" stroke-linecap="butt" stroke-linejoin="miter" stroke-miterlimit="4" transform="translate(40.251968504 27.354330709)" d="M 0 0l 18.42519685 11.976377953"/><path fill="#0074d9" fill-rule="nonzero" stroke="#005198" stroke-width="0.850393701" stroke-linecap="butt" stroke-linejoin="miter" stroke-miterlimit="4" transform="translate(36.850393701 23.952755906)" d="M 0 0m 3.401574803 0c -1.876934551 0 -3.401574803 1.524640252 -3.401574803 3.401574803c 0 1.876934551 1.524640252 3.401574803 3.401574803 3.401574803c 1.876934551 0 3.401574803 -1.524640252 3.401574803 -3.401574803c 0 -1.876934551 -1.524640252 -3.401574803 -3.401574803 -3.401574803Z "/><path fill="none" stroke="#666666" stroke-width="0.708661417" stroke-linecap="butt" stroke-linejoin="miter" stroke-miterlimit="4" transform="translate(58.677165354 27.354330709)" d="M 0 0h 18.42519685"/><path fill="none" stroke="#666666" stroke-width="0.708661417" stroke-linecap="butt" stroke-linejoin="miter" stroke-miterlimit="4" transform="translate(58.677165354 27.354330709)" d="M 0 0v 11.976377953"/><path fill="none" stroke="#666666" stroke-width="0.566929134" stroke-linecap="butt" stroke-linejoin="miter" stroke-miterlimit="4" transform="translate(58.677165354 27.354330709)" d="M 0 0l 18.42519685 11.976377953"/><path fill="#0074d9" fill-rule="nonzero" stroke="#005198" stroke-width="0.850393701" stroke-linecap="butt" stroke-linejoin="miter" stroke-miterlimit="4" transform="translate(55.275590551 23.952755906)" d="M 0 0m 3.401574803 0c -1.876934551 0 -3.401574803 1.524640252 -3.401574803 3.401574803c 0 1.876934551 1.524640252 3.401574803 3.401574803 3.401574803c 1.876934551 0 3.401574803 -1.524640252 3.401574803 -3.401574803c 0 -1.876934551 -1.524640252 -3.401574803 -3.401574803 -3.401574803Z "/><path fill="none" stroke="#666666" stroke-width="0.708661417" stroke-linecap="butt" stroke-linejoin="miter" stroke-miterlimit="4" transform="translate(77.102362205 27.354330709)" d="M 0 0h 18.42519685"/><path fill="none" stroke="#666666" stroke-width="0.708661417" stroke-linecap="butt" stroke-linejoin="miter" stroke-miterlimit="4" transform="translate(77.102362205 27.354330709)" d="M 0 0v 11.976377953"/><path fill="none" stroke="#666666" stroke-width="0.566929134" stroke-linecap="butt" stroke-linejoin="miter" stroke-miterlimit="4" transform="translate(77.102362205 27.354330709)" d="M 0 0l 18.42519685 11.976377953"/><path fill="#ff4136" fill-rule="nonzero" stroke="#b22e26" stroke-width="0.850393701" stroke-linecap="butt" stroke-linejoin="miter" stroke-miterlimit="4" transform="translate(73.700787402 23.952755906)" d="M 0 0m 3.401574803 0c -1.876934551 0 -3.401574803 1.524640252 -3.401574803 3.401574803c 0 1.876934551 1.524640252 3.401574803 3.401574803 3.401574803c 1.876934551 0 3.401574803 -1.524640252 3.401574803 -3.401574803c 0 -1.876934551 -1.524640252 -3.401574803 -3.401574803 -3.401574803Z "/><path fill="none" stroke="#666666" stroke-width="0.708661417" stroke-linecap="butt" stroke-linejoin="miter" stroke-miterlimit="4" transform="translate(95.527559055 27.354330709)" d="M 0 0h 18.42519685"/><path fill="none" stroke="#666666" stroke-width="0.708661417" stroke-linecap="butt" stroke-linejoin="miter" stroke-miterlimit="4" transform="translate(95.527559055 27.354330709)" d="M 0 0v 11.976377953"/><path fill="none" stroke="#666666" stroke-width="0.566929134" stroke-linecap="butt" stroke-linejoin="miter" stroke-miterlimit="4" transform="translate(95.527559055 27.354330709)" d="M 0 0l 18.42519685 11.976377953"/><path fill="#ff4136" fill-rule="nonzero" stroke="#b22e26" stroke-width="0.850393701" stroke-linecap="butt" stroke-linejoin="miter" stroke-miterlimit="4" transform="translate(92.125984252 23.952755906)" d="M 0 0m 3.401574803 0c -1.876934551 0 -3.401574803 1.524640252 -3.401574803 3.401574803c 0 1.876934551 1.524640252 3.401574803 3.401574803 3.401574803c 1.876934551 0 3.401574803 -1.524640252 3.401574803 -3.401574803c 0 -1.876934551 -1.524640252 -3.401574803 -3.401574803 -3.401574803Z "/><path fill="none" stroke="#666666" stroke-width="0.708661417" stroke-linecap="butt" stroke-linejoin="miter" stroke-miterlimit="4" transform="translate(113.952755906 27.354330709)" d="M 0 0v 11.976377953"/><path fill="#ff4136" fill-rule="nonzero" stroke="#b22e26" stroke-width="0.850393701" stroke-linecap="butt" stroke-linejoin="miter" stroke-miterlimit="4" transform="translate(110.551181102 23.952755906)" d="M 0 0m 3.401574803 0c -1.876934551 0 -3.401574803 1.524640252 -3.401574803 3.401574803c 0 1.876934551 1.524640252 3.401574803 3.401574803 3.401574803c 1.876934551 0 3.401574803 -1.524640252 3.401574803 -3.401574803c 0 -1.876934551 -1.524640252 -3.401574803 -3.401574803 -3.401574803Z "/><path fill="none" stroke="#666666" stroke-width="0.708661417" stroke-linecap="butt" stroke-linejoin="miter" stroke-miterlimit="4" transform="translate(3.401574803 39.330708661)" d="M 0 0h 18.42519685"/><path fill="none" stroke="#666666" stroke-width="0.708661417" stroke-linecap="butt" stroke-linejoin="miter" stroke-miterlimit="4" transform="translate(3.401574803 39.330708661)" d="M 0 0v 11.976377953"/><path fill="none" stroke="#666666" stroke-width="0.566929134" stroke-linecap="butt" stroke-linejoin="miter" stroke-miterlimit="4" transform="translate(3.401574803 39.330708661)" d="M 0 0l 18.42519685 11.976377953"/><path fill="#ffdc00" fill-rule="nonzero" stroke="#b29a00" stroke-width="0.850393701" stroke-linecap="butt" stroke-linejoin="miter" stroke-miterlimit="4" transform="translate(0 35.929133858)" d="M 0 0m 3.401574803 0c -1.876934551 0 -3.401574803 1.524640252 -3.401574803 3.401574803c 0 1.876934551 1.524640252 3.401574803 3.401574803 3.401574803c 1.876934551 0 3.401574803 -1.524640252 3.401574803 -3.401574803c 0 -1.876934551 -1.524640252 -3.401574803 -3.401574803 -3.401574803Z "/><path fill="none" stroke="#666666" stroke-width="0.708661417" stroke-linecap="butt" stroke-linejoin="miter" stroke-miterlimit="4" transform="translate(21.826771654 39.330708661)" d="M 0 0h 18.42519685"/><path fill="none" stroke="#666666" stroke-width="0.708661417" stroke-linecap="butt" stroke-linejoin="miter" stroke-miterlimit="4" transform="translate(21.826771654 39.330708661)" d="M 0 0v 11.976377953"/><path fill="none" stroke="#666666" stroke-width="0.566929134" stroke-linecap="butt" stroke-linejoin="miter" stroke-miterlimit="4" transform="translate(21.826771654 39.330708661)" d="M 0 0l 18.42519685 11.976377953"/><path fill="#0074d9" fill-rule="nonzero" stroke="#005198" stroke-width="0.850393701" stroke-linecap="butt" stroke-linejoin="miter" stroke-miterlimit="4" transform="translate(18.42519685 35.929133858)" d="M 0 0m 3.401574803 0c -1.876934551 0 -3.401574803 1.524640252 -3.401574803 3.401574803c 0 1.876934551 1.524640252 3.401574803 3.401574803 3.401574803c 1.876934551 0 3.401574803 -1.524640252 3.401574803 -3.401574803c 0 -1.876934551 -1.524640252 -3.401574803 -3.401574803 -3.401574803Z "/><path fill="none" stroke="#666666" stroke-width="0.708661417" stroke-linecap="butt" stroke-linejoin="miter" stroke-miterlimit="4" transform="translate(40.251968504 39.330708661)" d="M 0 0h 18.42519685"/><path fill="none" stroke="#666666" stroke-width="0.708661417" stroke-linecap="butt" stroke-linejoin="miter" stroke-miterlimit="4" transform="translate(40.251968504 39.330708661)" d="M 0 0v 11.976377953"/><path fill="none" stroke="#666666" stroke-width="0.566929134" stroke-linecap="butt" stroke-linejoin="miter" stroke-miterlimit="4" transform="translate(40.251968504 39.330708661)" d="M 0 0l 18.42519685 11.976377953"/><path fill="#0074d9" fill-rule="nonzero" stroke="#005198" stroke-width="0.850393701" stroke-linecap="butt" stroke-linejoin="miter" stroke-miterlimit="4" transform="translate(36.850393701 35.929133858)" d="M 0 0m 3.401574803 0c -1.876934551 0 -3.401574803 1.524640252 -3.401574803 3.401574803c 0 1.876934551 1.524640252 3.401574803 3.401574803 3.401574803c 1.876934551 0 3.401574803 -1.524640252 3.401574803 -3.401574803c 0 -1.876934551 -1.524640252 -3.401574803 -3.401574803 -3.401574803Z "/><path fill="none" stroke="#666666" stroke-width="0.708661417" stroke-linecap="butt" stroke-linejoin="miter" stroke-miterlimit="4" transform="translate(58.677165354 39.330708661)" d="M 0 0h 18.42519685"/><path fill="none" stroke="#666666" stroke-width="0.708661417" stroke-linecap="butt" stroke-linejoin="miter" stroke-miterlimit="4" transform="translate(58.677165354 39.330708661)" d="M 0 0v 11.976377953"/><path fill="none" stroke="#666666" stroke-width="0.566929134" stroke-linecap="butt" stroke-linejoin="miter" stroke-miterlimit="4" transform="translate(58.677165354 39.330708661)" d="M 0 0l 18.42519685 11.976377953"/><path fill="#0074d9" fill-rule="nonzero" stroke="#005198" stroke-width="0.850393701" stroke-linecap="butt" stroke-linejoin="miter" stroke-miterlimit="4" transform="translate(55.275590551 35.929133858)" d="M 0 0m 3.401574803 0c -1.876934551 0 -3.401574803 1.524640252 -3.401574803 3.401574803c 0 1.876934551 1.524640252 3.401574803 3.401574803 3.401574803c 1.876934551 0 3.401574803 -1.524640252 3.401574803 -3.401574803c 0 -1.876934551 -1.524640252 -3.401574803 -3.401574803 -3.401574803Z "/><path fill="none" stroke="#666666" stroke-width="0.708661417" stroke-linecap="butt" stroke-linejoin="miter" stroke-miterlimit="4" transform="translate(77.102362205 39.330708661)" d="M 0 0h 18.42519685"/><path fill="none" stroke="#666666" stroke-width="0.708661417" stroke-linecap="butt" stroke-linejoin="miter" stroke-miterlimit="4" transform="translate(77.102362205 39.330708661)" d="M 0 0v 11.976377953"/><path fill="none" stroke="#666666" stroke-width="0.566929134" stroke-linecap="butt" stroke-linejoin="miter" stroke-miterlimit="4" transform="translate(77.102362205 39.330708661)" d="M 0 0l 18.42519685 11.976377953"/><path fill="#ff4136" fill-rule="nonzero" stroke="#b22e26" stroke-width="0.850393701" stroke-linecap="butt" stroke-linejoin="miter" stroke-miterlimit="4" transform="translate(73.700787402 35.929133858)" d="M 0 0m 3.401574803 0c -1.876934551 0 -3.401574803 1.524640252 -3.401574803 3.401574803c 0 1.876934551 1.524640252 3.401574803 3.401574803 3.401574803c 1.876934551 0 3.401574803 -1.524640252 3.401574803 -3.401574803c 0 -1.876934551 -1.524640252 -3.401574803 -3.401574803 -3.401574803Z "/><path fill="none" stroke="#666666" stroke-width="0.708661417" stroke-linecap="butt" stroke-linejoin="miter" stroke-miterlimit="4" transform="translate(95.527559055 39.330708661)" d="M 0 0h 18.42519685"/><path fill="none" stroke="#666666" stroke-width="0.708661417" stroke-linecap="butt" stroke-linejoin="miter" stroke-miterlimit="4" transform="translate(95.527559055 39.330708661)" d="M 0 0v 11.976377953"/><path fill="none" stroke="#666666" stroke-width="0.566929134" stroke-linecap="butt" stroke-linejoin="miter" stroke-miterlimit="4" transform="translate(95.527559055 39.330708661)" d="M 0 0l 18.42519685 11.976377953"/><path fill="#0074d9" fill-rule="nonzero" stroke="#005198" stroke-width="0.850393701" stroke-linecap="butt" stroke-linejoin="miter" stroke-miterlimit="4" transform="translate(92.125984252 35.929133858)" d="M 0 0m 3.401574803 0c -1.876934551 0 -3.401574803 1.524640252 -3.401574803 3.401574803c 0 1.876934551 1.524640252 3.401574803 3.401574803 3.401574803c 1.876934551 0 3.401574803 -1.524640252 3.401574803 -3.401574803c 0 -1.876934551 -1.524640252 -3.401574803 -3.401574803 -3.401574803Z "/><path fill="none" stroke="#666666" stroke-width="0.708661417" stroke-linecap="butt" stroke-linejoin="miter" stroke-miterlimit="4" transform="translate(113.952755906 39.330708661)" d="M 0 0v 11.976377953"/><path fill="#ff4136" fill-rule="nonzero" stroke="#b22e26" stroke-width="0.850393701" stroke-linecap="butt" stroke-linejoin="miter" stroke-miterlimit="4" transform="translate(110.551181102 35.929133858)" d="M 0 0m 3.401574803 0c -1.876934551 0 -3.401574803 1.524640252 -3.401574803 3.401574803c 0 1.876934551 1.524640252 3.401574803 3.401574803 3.401574803c 1.876934551 0 3.401574803 -1.524640252 3.401574803 -3.401574803c 0 -1.876934551 -1.524640252 -3.401574803 -3.401574803 -3.401574803Z "/><path fill="none" stroke="#666666" stroke-width="0.708661417" stroke-linecap="butt" stroke-linejoin="miter" stroke-miterlimit="4" transform="translate(3.401574803 51.307086614)" d="M 0 0h 18.42519685"/><path fill="none" stroke="#666666" stroke-width="0.708661417" stroke-linecap="butt" stroke-linejoin="miter" stroke-miterlimit="4" transform="translate(3.401574803 51.307086614)" d="M 0 0v 11.976377953"/><path fill="none" stroke="#666666" stroke-width="0.566929134" stroke-linecap="butt" stroke-linejoin="miter" stroke-miterlimit="4" transform="translate(3.401574803 51.307086614)" d="M 0 0l 18.42519685 11.976377953"/><path fill="#ff4136" fill-rule="nonzero" stroke="#b22e26" stroke-width="0.850393701" stroke-linecap="butt" stroke-linejoin="miter" stroke-miterlimit="4" transform="translate(0 47.905511811)" d="M 0 0m 3.401574803 0c -1.876934551 0 -3.401574803 1.524640252 -3.401574803 3.401574803c 0 1.876934551 1.524640252 3.401574803 3.401574803 3.401574803c 1.876934551 0 3.401574803 -1.524640252 3.401574803 -3.401574803c 0 -1.876934551 -1.524640252 -3.401574803 -3.401574803 -3.401574803Z "/><path fill="none" stroke="#666666" stroke-width="0.708661417" stroke-linecap="butt" stroke-linejoin="miter" stroke-miterlimit="4" transform="translate(21.826771654 51.307086614)" d="M 0 0h 18.42519685"/><path fill="none" stroke="#666666" stroke-width="0.708661417" stroke-linecap="butt" stroke-linejoin="miter" stroke-miterlimit="4" transform="translate(21.826771654 51.307086614)" d="M 0 0v 11.976377953"/><path fill="none" stroke="#666666" stroke-width="0.566929134" stroke-linecap="butt" stroke-linejoin="miter" stroke-miterlimit="4" transform="translate(21.826771654 51.307086614)" d="M 0 0l 18.42519685 11.976377953"/><path fill="#ff4136" fill-rule="nonzero" stroke="#b22e26" stroke-width="0.850393701" stroke-linecap="butt" stroke-linejoin="miter" stroke-miterlimit="4" transform="translate(18.42519685 47.905511811)" d="M 0 0m 3.401574803 0c -1.876934551 0 -3.401574803 1.524640252 -3.401574803 3.401574803c 0 1.876934551 1.524640252 3.401574803 3.401574803 3.401574803c 1.876934551 0 3.401574803 -1.524640252 3.401574803 -3.401574803c 0 -1.876934551 -1.524640252 -3.401574803 -3.401574803 -3.401574803Z "/><path fill="none" stroke="#666666" stroke-width="0.708661417" stroke-linecap="butt" stroke-linejoin="miter" stroke-miterlimit="4" transform="translate(40.251968504 51.307086614)" d="M 0 0h 18.42519685"/><path fill="none" stroke="#666666" stroke-width="0.708661417" stroke-linecap="butt" stroke-linejoin="miter" stroke-miterlimit="4" transform="translate(40.251968504 51.307086614)" d="M 0 0v 11.976377953"/><path fill="none" stroke="#666666" stroke-width="0.566929134" stroke-linecap="butt" stroke-linejoin="miter" stroke-miterlimit="4" transform="translate(40.251968504 51.307086614)" d="M 0 0l 18.42519685 11.976377953"/><path fill="#ff4136" fill-rule="nonzero" stroke="#b22e26" stroke-width="0.850393701" stroke-linecap="butt" stroke-linejoin="miter" stroke-miterlimit="4" transform="translate(36.850393701 47.905511811)" d="M 0 0m 3.401574803 0c -1.876934551 0 -3.401574803 1.524640252 -3.401574803 3.401574803c 0 1.876934551 1.524640252 3.401574803 3.401574803 3.401574803c 1.876934551 0 3.401574803 -1.524640252 3.401574803 -3.401574803c 0 -1.876934551 -1.524640252 -3.401574803 -3.401574803 -3.401574803Z "/><path fill="none" stroke="#666666" stroke-width="0.708661417" stroke-linecap="butt" stroke-linejoin="miter" stroke-miterlimit="4" transform="translate(58.677165354 51.307086614)" d="M 0 0h 18.42519685"/><path fill="none" stroke="#666666" stroke-width="0.708661417" stroke-linecap="butt" stroke-linejoin="miter" stroke-miterlimit="4" transform="translate(58.677165354 51.307086614)" d="M 0 0v 11.976377953"/><path fill="none" stroke="#666666" stroke-width="0.566929134" stroke-linecap="butt" stroke-linejoin="miter" stroke-miterlimit="4" transform="translate(58.677165354 51.307086614)" d="M 0 0l 18.42519685 11.976377953"/><path fill="#ff4136" fill-rule="nonzero" stroke="#b22e26" stroke-width="0.850393701" stroke-linecap="butt" stroke-linejoin="miter" stroke-miterlimit="4" transform="translate(55.275590551 47.905511811)" d="M 0 0m 3.401574803 0c -1.876934551 0 -3.401574803 1.524640252 -3.401574803 3.401574803c 0 1.876934551 1.524640252 3.401574803 3.401574803 3.401574803c 1.876934551 0 3.401574803 -1.524640252 3.401574803 -3.401574803c 0 -1.876934551 -1.524640252 -3.401574803 -3.401574803 -3.401574803Z "/><path fill="none" stroke="#666666" stroke-width="0.708661417" stroke-linecap="butt" stroke-linejoin="miter" stroke-miterlimit="4" transform="translate(77.102362205 51.307086614)" d="M 0 0h 18.42519685"/><path fill="none" stroke="#666666" stroke-width="0.708661417" stroke-linecap="butt" stroke-linejoin="miter" stroke-miterlimit="4" transform="translate(77.102362205 51.307086614)" d="M 0 0v 11.976377953"/><path fill="none" stroke="#666666" stroke-width="0.566929134" stroke-linecap="butt" stroke-linejoin="miter" stroke-miterlimit="4" transform="translate(77.102362205 51.307086614)" d="M 0 0l 18.42519685 11.976377953"/><path fill="#ff4136" fill-rule="nonzero" stroke="#b22e26" stroke-width="0.850393701" stroke-linecap="butt" stroke-linejoin="miter" stroke-miterlimit="4" transform="translate(73.700787402 47.905511811)" d="M 0 0m 3.401574803 0c -1.876934551 0 -3.401574803 1.524640252 -3.401574803 3.401574803c 0 1.876934551 1.524640252 3.401574803 3.401574803 3.401574803c 1.876934551 0 3.401574803 -1.524640252 3.401574803 -3.401574803c 0 -1.876934551 -1.524640252 -3.401574803 -3.401574803 -3.401574803Z "/><path fill="none" stroke="#666666" stroke-width="0.708661417" stroke-linecap="butt" stroke-linejoin="miter" stroke-miterlimit="4" transform="translate(95.527559055 51.307086614)" d="M 0 0h 18.42519685"/><path fill="none" stroke="#666666" stroke-width="0.708661417" stroke-linecap="butt" stroke-linejoin="miter" stroke-miterlimit="4" transform="translate(95.527559055 51.307086614)" d="M 0 0v 11.976377953"/><path fill="none" stroke="#666666" stroke-width="0.566929134" stroke-linecap="butt" stroke-linejoin="miter" stroke-miterlimit="4" transform="translate(95.527559055 51.307086614)" d="M 0 0l 18.42519685 11.976377953"/><path fill="#ff4136" fill-rule="nonzero" stroke="#b22e26" stroke-width="0.850393701" stroke-linecap="butt" stroke-linejoin="miter" stroke-miterlimit="4" transform="translate(92.125984252 47.905511811)" d="M 0 0m 3.401574803 0c -1.876934551 0 -3.401574803 1.524640252 -3.401574803 3.401574803c 0 1.876934551 1.524640252 3.401574803 3.401574803 3.401574803c 1.876934551 0 3.401574803 -1.524640252 3.401574803 -3.401574803c 0 -1.876934551 -1.524640252 -3.401574803 -3.401574803 -3.401574803Z "/><path fill="none" stroke="#666666" stroke-width="0.708661417" stroke-linecap="butt" stroke-linejoin="miter" stroke-miterlimit="4" transform="translate(113.952755906 51.307086614)" d="M 0 0v 11.976377953"/><path fill="#0074d9" fill-rule="nonzero" stroke="#005198" stroke-width="0.850393701" stroke-linecap="butt" stroke-linejoin="miter" stroke-miterlimit="4" transform="translate(110.551181102 47.905511811)" d="M 0 0m 3.401574803 0c -1.876934551 0 -3.401574803 1.524640252 -3.401574803 3.401574803c 0 1.876934551 1.524640252 3.401574803 3.401574803 3.401574803c 1.876934551 0 3.401574803 -1.524640252 3.401574803 -3.401574803c 0 -1.876934551 -1.524640252 -3.401574803 -3.401574803 -3.401574803Z "/><path fill="none" stroke="#666666" stroke-width="0.708661417" stroke-linecap="butt" stroke-linejoin="miter" stroke-miterlimit="4" transform="translate(3.401574803 63.283464567)" d="M 0 0h 18.42519685"/><path fill="none" stroke="#666666" stroke-width="0.708661417" stroke-linecap="butt" stroke-linejoin="miter" stroke-miterlimit="4" transform="translate(3.401574803 63.283464567)" d="M 0 0v 11.976377953"/><path fill="none" stroke="#666666" stroke-width="0.566929134" stroke-linecap="butt" stroke-linejoin="miter" stroke-miterlimit="4" transform="translate(3.401574803 63.283464567)" d="M 0 0l 18.42519685 11.976377953"/><path fill="#ff4136" fill-rule="nonzero" stroke="#b22e26" stroke-width="0.850393701" stroke-linecap="butt" stroke-linejoin="miter" stroke-miterlimit="4" transform="translate(0 59.881889764)" d="M 0 0m 3.401574803 0c -1.876934551 0 -3.401574803 1.524640252 -3.401574803 3.401574803c 0 1.876934551 1.524640252 3.401574803 3.401574803 3.401574803c 1.876934551 0 3.401574803 -1.524640252 3.401574803 -3.401574803c 0 -1.876934551 -1.524640252 -3.401574803 -3.401574803 -3.401574803Z "/><path fill="none" stroke="#666666" stroke-width="0.708661417" stroke-linecap="butt" stroke-linejoin="miter" stroke-miterlimit="4" transform="translate(21.826771654 63.283464567)" d="M 0 0h 18.42519685"/><path fill="none" stroke="#666666" stroke-width="0.708661417" stroke-linecap="butt" stroke-linejoin="miter" stroke-miterlimit="4" transform="translate(21.826771654 63.283464567)" d="M 0 0v 11.976377953"/><path fill="none" stroke="#666666" stroke-width="0.566929134" stroke-linecap="butt" stroke-linejoin="miter" stroke-miterlimit="4" transform="translate(21.826771654 63.283464567)" d="M 0 0l 18.42519685 11.976377953"/><path fill="#ffdc00" fill-rule="nonzero" stroke="#b29a00" stroke-width="0.850393701" stroke-linecap="butt" stroke-linejoin="miter" stroke-miterlimit="4" transform="translate(18.42519685 59.881889764)" d="M 0 0m 3.401574803 0c -1.876934551 0 -3.401574803 1.524640252 -3.401574803 3.401574803c 0 1.876934551 1.524640252 3.401574803 3.401574803 3.401574803c 1.876934551 0 3.401574803 -1.524640252 3.401574803 -3.401574803c 0 -1.876934551 -1.524640252 -3.401574803 -3.401574803 -3.401574803Z "/><path fill="none" stroke="#666666" stroke-width="0.708661417" stroke-linecap="butt" stroke-linejoin="miter" stroke-miterlimit="4" transform="translate(40.251968504 63.283464567)" d="M 0 0h 18.42519685"/><path fill="none" stroke="#666666" stroke-width="0.708661417" stroke-linecap="butt" stroke-linejoin="miter" stroke-miterlimit="4" transform="translate(40.251968504 63.283464567)" d="M 0 0v 11.976377953"/><path fill="none" stroke="#666666" stroke-width="0.566929134" stroke-linecap="butt" stroke-linejoin="miter" stroke-miterlimit="4" transform="translate(40.251968504 63.283464567)" d="M 0 0l 18.42519685 11.976377953"/><path fill="#0074d9" fill-rule="nonzero" stroke="#005198" stroke-width="0.850393701" stroke-linecap="butt" stroke-linejoin="miter" stroke-miterlimit="4" transform="translate(36.850393701 59.881889764)" d="M 0 0m 3.401574803 0c -1.876934551 0 -3.401574803 1.524640252 -3.401574803 3.401574803c 0 1.876934551 1.524640252 3.401574803 3.401574803 3.401574803c 1.876934551 0 3.401574803 -1.524640252 3.401574803 -3.401574803c 0 -1.876934551 -1.524640252 -3.401574803 -3.401574803 -3.401574803Z "/><path fill="none" stroke="#666666" stroke-width="0.708661417" stroke-linecap="butt" stroke-linejoin="miter" stroke-miterlimit="4" transform="translate(58.677165354 63.283464567)" d="M 0 0h 18.42519685"/><path fill="none" stroke="#666666" stroke-width="0.708661417" stroke-linecap="butt" stroke-linejoin="miter" stroke-miterlimit="4" transform="translate(58.677165354 63.283464567)" d="M 0 0v 11.976377953"/><path fill="none" stroke="#666666" stroke-width="0.566929134" stroke-linecap="butt" stroke-linejoin="miter" stroke-miterlimit="4" transform="translate(58.677165354 63.283464567)" d="M 0 0l 18.42519685 11.976377953"/><path fill="#ff4136" fill-rule="nonzero" stroke="#b22e26" stroke-width="0.850393701" stroke-linecap="butt" stroke-linejoin="miter" stroke-miterlimit="4" transform="translate(55.275590551 59.881889764)" d="M 0 0m 3.401574803 0c -1.876934551 0 -3.401574803 1.524640252 -3.401574803 3.401574803c 0 1.876934551 1.524640252 3.401574803 3.401574803 3.401574803c 1.876934551 0 3.401574803 -1.524640252 3.401574803 -3.401574803c 0 -1.876934551 -1.524640252 -3.401574803 -3.401574803 -3.401574803Z "/><path fill="none" stroke="#666666" stroke-width="0.708661417" stroke-linecap="butt" stroke-linejoin="miter" stroke-miterlimit="4" transform="translate(77.102362205 63.283464567)" d="M 0 0h 18.42519685"/><path fill="none" stroke="#666666" stroke-width="0.708661417" stroke-linecap="butt" stroke-linejoin="miter" stroke-miterlimit="4" transform="translate(77.102362205 63.283464567)" d="M 0 0v 11.976377953"/><path fill="none" stroke="#666666" stroke-width="0.566929134" stroke-linecap="butt" stroke-linejoin="miter" stroke-miterlimit="4" transform="translate(77.102362205 63.283464567)" d="M 0 0l 18.42519685 11.976377953"/><path fill="#ffdc00" fill-rule="nonzero" stroke="#b29a00" stroke-width="0.850393701" stroke-linecap="butt" stroke-linejoin="miter" stroke-miterlimit="4" transform="translate(73.700787402 59.881889764)" d="M 0 0m 3.401574803 0c -1.876934551 0 -3.401574803 1.524640252 -3.401574803 3.401574803c 0 1.876934551 1.524640252 3.401574803 3.401574803 3.401574803c 1.876934551 0 3.401574803 -1.524640252 3.401574803 -3.401574803c 0 -1.876934551 -1.524640252 -3.401574803 -3.401574803 -3.401574803Z "/><path fill="none" stroke="#666666" stroke-width="0.708661417" stroke-linecap="butt" stroke-linejoin="miter" stroke-miterlimit="4" transform="translate(95.527559055 63.283464567)" d="M 0 0h 18.42519685"/><path fill="none" stroke="#666666" stroke-width="0.708661417" stroke-linecap="butt" stroke-linejoin="miter" stroke-miterlimit="4" transform="translate(95.527559055 63.283464567)" d="M 0 0v 11.976377953"/><path fill="none" stroke="#666666" stroke-width="0.566929134" stroke-linecap="butt" stroke-linejoin="miter" stroke-miterlimit="4" transform="translate(95.527559055 63.283464567)" d="M 0 0l 18.42519685 11.976377953"/><path fill="#ff4136" fill-rule="nonzero" stroke="#b22e26" stroke-width="0.850393701" stroke-linecap="butt" stroke-linejoin="miter" stroke-miterlimit="4" transform="translate(92.125984252 59.881889764)" d="M 0 0m 3.401574803 0c -1.876934551 0 -3.401574803 1.524640252 -3.401574803 3.401574803c 0 1.876934551 1.524640252 3.401574803 3.401574803 3.401574803c 1.876934551 0 3.401574803 -1.524640252 3.401574803 -3.401574803c 0 -1.876934551 -1.524640252 -3.401574803 -3.401574803 -3.401574803Z "/><path fill="none" stroke="#666666" stroke-width="0.708661417" stroke-linecap="butt" stroke-linejoin="miter" stroke-miterlimit="4" transform="translate(113.952755906 63.283464567)" d="M 0 0v 11.976377953"/><path fill="#ff4136" fill-rule="nonzero" stroke="#b22e26" stroke-width="0.850393701" stroke-linecap="butt" stroke-linejoin="miter" stroke-miterlimit="4" transform="translate(110.551181102 59.881889764)" d="M 0 0m 3.401574803 0c -1.876934551 0 -3.401574803 1.524640252 -3.401574803 3.401574803c 0 1.876934551 1.524640252 3.401574803 3.401574803 3.401574803c 1.876934551 0 3.401574803 -1.524640252 3.401574803 -3.401574803c 0 -1.876934551 -1.524640252 -3.401574803 -3.401574803 -3.401574803Z "/><path fill="none" stroke="#666666" stroke-width="0.708661417" stroke-linecap="butt" stroke-linejoin="miter" stroke-miterlimit="4" transform="translate(3.401574803 75.25984252)" d="M 0 0h 18.42519685"/><path fill="#ffdc00" fill-rule="nonzero" stroke="#b29a00" stroke-width="0.850393701" stroke-linecap="butt" stroke-linejoin="miter" stroke-miterlimit="4" transform="translate(0 71.858267717)" d="M 0 0m 3.401574803 0c -1.876934551 0 -3.401574803 1.524640252 -3.401574803 3.401574803c 0 1.876934551 1.524640252 3.401574803 3.401574803 3.401574803c 1.876934551 0 3.401574803 -1.524640252 3.401574803 -3.401574803c 0 -1.876934551 -1.524640252 -3.401574803 -3.401574803 -3.401574803Z "/><path fill="none" stroke="#666666" stroke-width="0.708661417" stroke-linecap="butt" stroke-linejoin="miter" stroke-miterlimit="4" transform="translate(21.826771654 75.25984252)" d="M 0 0h 18.42519685"/><path fill="#ffdc00" fill-rule="nonzero" stroke="#b29a00" stroke-width="0.850393701" stroke-linecap="butt" stroke-linejoin="miter" stroke-miterlimit="4" transform="translate(18.42519685 71.858267717)" d="M 0 0m 3.401574803 0c -1.876934551 0 -3.401574803 1.524640252 -3.401574803 3.401574803c 0 1.876934551 1.524640252 3.401574803 3.401574803 3.401574803c 1.876934551 0 3.401574803 -1.524640252 3.401574803 -3.401574803c 0 -1.876934551 -1.524640252 -3.401574803 -3.401574803 -3.401574803Z "/><path fill="none" stroke="#666666" stroke-width="0.708661417" stroke-linecap="butt" stroke-linejoin="miter" stroke-miterlimit="4" transform="translate(40.251968504 75.25984252)" d="M 0 0h 18.42519685"/><path fill="#0074d9" fill-rule="nonzero" stroke="#005198" stroke-width="0.850393701" stroke-linecap="butt" stroke-linejoin="miter" stroke-miterlimit="4" transform="translate(36.850393701 71.858267717)" d="M 0 0m 3.401574803 0c -1.876934551 0 -3.401574803 1.524640252 -3.401574803 3.401574803c 0 1.876934551 1.524640252 3.401574803 3.401574803 3.401574803c 1.876934551 0 3.401574803 -1.524640252 3.401574803 -3.401574803c 0 -1.876934551 -1.524640252 -3.401574803 -3.401574803 -3.401574803Z "/><path fill="none" stroke="#666666" stroke-width="0.708661417" stroke-linecap="butt" stroke-linejoin="miter" stroke-miterlimit="4" transform="translate(58.677165354 75.25984252)" d="M 0 0h 18.42519685"/><path fill="#0074d9" fill-rule="nonzero" stroke="#005198" stroke-width="0.850393701" stroke-linecap="butt" stroke-linejoin="miter" stroke-miterlimit="4" transform="translate(55.275590551 71.858267717)" d="M 0 0m 3.401574803 0c -1.876934551 0 -3.401574803 1.524640252 -3.401574803 3.401574803c 0 1.876934551 1.524640252 3.401574803 3.401574803 3.401574803c 1.876934551 0 3.401574803 -1.524640252 3.401574803 -3.401574803c 0 -1.876934551 -1.524640252 -3.401574803 -3.401574803 -3.401574803Z "/><path fill="none" stroke="#666666" stroke-width="0.708661417" stroke-linecap="butt" stroke-linejoin="miter" stroke-miterlimit="4" transform="translate(77.102362205 75.25984252)" d="M 0 0h 18.42519685"/><path fill="#ffdc00" fill-rule="nonzero" stroke="#b29a00" stroke-width="0.850393701" stroke-linecap="butt" stroke-linejoin="miter" stroke-miterlimit="4" transform="translate(73.700787402 71.858267717)" d="M 0 0m 3.401574803 0c -1.876934551 0 -3.401574803 1.524640252 -3.401574803 3.401574803c 0 1.876934551 1.524640252 3.401574803 3.401574803 3.401574803c 1.876934551 0 3.401574803 -1.524640252 3.401574803 -3.401574803c 0 -1.876934551 -1.524640252 -3.401574803 -3.401574803 -3.401574803Z "/><path fill="none" stroke="#666666" stroke-width="0.708661417" stroke-linecap="butt" stroke-linejoin="miter" stroke-miterlimit="4" transform="translate(95.527559055 75.25984252)" d="M 0 0h 18.42519685"/><path fill="#ffdc00" fill-rule="nonzero" stroke="#b29a00" stroke-width="0.850393701" stroke-linecap="butt" stroke-linejoin="miter" stroke-miterlimit="4" transform="translate(92.125984252 71.858267717)" d="M 0 0m 3.401574803 0c -1.876934551 0 -3.401574803 1.524640252 -3.401574803 3.401574803c 0 1.876934551 1.524640252 3.401574803 3.401574803 3.401574803c 1.876934551 0 3.401574803 -1.524640252 3.401574803 -3.401574803c 0 -1.876934551 -1.524640252 -3.401574803 -3.401574803 -3.401574803Z "/><path fill="#0074d9" fill-rule="nonzero" stroke="#005198" stroke-width="0.850393701" stroke-linecap="butt" stroke-linejoin="miter" stroke-miterlimit="4" transform="translate(110.551181102 71.858267717)" d="M 0 0m 3.401574803 0c -1.876934551 0 -3.401574803 1.524640252 -3.401574803 3.401574803c 0 1.876934551 1.524640252 3.401574803 3.401574803 3.401574803c 1.876934551 0 3.401574803 -1.524640252 3.401574803 -3.401574803c 0 -1.876934551 -1.524640252 -3.401574803 -3.401574803 -3.401574803Z "/></g></svg>