<svg viewBox="0 0 360.981489764 100.517772206" width="360.981489764pt" height="100.517772206pt" xmlns="http://www.w3.org/2000/svg" xmlns:xlink="http://www.w3.org/1999/xlink" xmlns:h5="http://www.w3.org/1999/xhtml"><g transform="matrix(1 0 0 -1 7.04079685 7.564322835)"><use xlink:href="#g2D3B63B3D37C6B08D379552FD2A985A0" x="0" y="0" fill="#000000" fill-rule="nonzero"/><use xlink:href="#g2692DE81FC10DE1074E406F7B73B8399" x="5.004" y="0" fill="#000000" fill-rule="nonzero"/><use xlink:href="#g7768D25C11147077D781E76462AE0DFE" x="10.26" y="0" fill="#000000" fill-rule="nonzero"/><use xlink:href="#g42758B220A590C72E0B14D3F7AC384D4" x="14.256" y="0" fill="#000000" fill-rule="nonzero"/><use xlink:href="#gB05A65E9B9DCB70494EDEBCC17A7EEF0" x="18.252" y="0" fill="#000000" fill-rule="nonzero"/><use xlink:href="#gE7B9C7C0FFA1C6387431E1F5139D63BA" x="20.754" y="0" fill="#000000" fill-rule="nonzero"/><use xlink:href="#g3E394391E01B3AAF023A58424F90F9CA" x="25.254" y="0" fill="#000000" fill-rule="nonzero"/><use xlink:href="#gE7B9C7C0FFA1C6387431E1F5139D63BA" x="30.753" y="0" fill="#000000" fill-rule="nonzero"/><use xlink:href="#g42758B220A590C72E0B14D3F7AC384D4" x="35.253" y="0" fill="#000000" fill-rule="nonzero"/><use xlink:href="#g9DCAD2B05394C25EE96FF9BEA25297A7" x="39.249" y="0" fill="#000000" fill-rule="nonzero"/><use xlink:href="#gB05A65E9B9DCB70494EDEBCC17A7EEF0" x="42.75" y="0" fill="#000000" fill-rule="nonzero"/><use xlink:href="#g51F09839BC673D286E7D50E7467ED61B" x="45.252" y="0" fill="#000000" fill-rule="nonzero"/><use xlink:href="#g7059B17DFD549B7742B875C34A657FAC" x="49.752" y="0" fill="#000000" fill-rule="nonzero"/></g><g transform="matrix(1 0 0 -1 64.79379685 7.564322835)"><use xlink:href="#g93020333A3722A63B3248409568B4E65" x="0" y="0" fill="#000000" fill-rule="nonzero"/></g><g transform="matrix(1 0 0 -1 69.29379685 7.564322835)"><use xlink:href="#g40DB25CD2B59AB3B3B2718087D4E7C07" x="0" y="0" fill="#000000" fill-rule="nonzero"/><use xlink:href="#g101D38A8742CB44153F60927B2FD4196" x="5.499" y="0" fill="#000000" fill-rule="nonzero"/><use xlink:href="#g2692DE81FC10DE1074E406F7B73B8399" x="12.996" y="0" fill="#000000" fill-rule="nonzero"/><use xlink:href="#gB05A65E9B9DCB70494EDEBCC17A7EEF0" x="18" y="0" fill="#000000" fill-rule="nonzero"/><use xlink:href="#g471AB65612D8F26489435CB642BA4E21" x="20.502" y="0" fill="#000000" fill-rule="nonzero"/><use xlink:href="#g51F09839BC673D286E7D50E7467ED61B" x="25.002" y="0" fill="#000000" fill-rule="nonzero"/><use xlink:href="#g9DCAD2B05394C25EE96FF9BEA25297A7" x="29.502" y="0" fill="#000000" fill-rule="nonzero"/><use xlink:href="#gC0A3BADC8CC2E8A801C9EFE70CA8CA50" x="33.003" y="0" fill="#000000" fill-rule="nonzero"/></g><g transform="translate(1.417322835 11.564322835)"><path fill="#cedcec" fill-rule="nonzero" stroke="#628fc2" stroke-width="0.4" stroke-linecap="butt" stroke-linejoin="miter" stroke-miterlimit="4" transform="translate(64.503937008 48.682590223)" d="M 0 0m 0 25.530701667h 35.275590551l -13.228346457 -22.912168163l -10.582677165 -2.618533504l -11.464566929 25.530701667Z "/><path fill="none" transform="translate(79.113287402 59.015574433)" d="M 0 0h 5.175v 6.174h -5.175v -6.174Z "/><g transform="translate(79.113287402 59.015574292)"><g transform="matrix(1 0 0 -1 0 6.174)"><use xlink:href="#g6EEBC0A4D3D4029D018AE3D0B5DF8FCE" x="0" y="0" fill="#1f5fa8" fill-rule="nonzero"/></g></g><path fill="#f1d3d0" fill-rule="nonzero" stroke="#d3746b" stroke-width="0.4" stroke-linecap="butt" stroke-linejoin="miter" stroke-miterlimit="4" transform="translate(75.968503937 32.971389197)" d="M 0 0m 10.582677165 18.32973453l -10.582677165 -18.32973453v 15.711201026l 10.582677165 2.618533504Z "/><path fill="none" transform="translate(78.541830709 40.608100964)" d="M 0 0h 4.025v 4.802h -4.025v -4.802Z "/><g transform="translate(78.541830646 40.608100948)"><g transform="matrix(1 0 0 -1 0 4.802)"><use xlink:href="#g1CB6D3579CA06DCF1B0DB2EB77B8DCD7" x="0" y="0" fill="#c0392b" fill-rule="nonzero"/></g></g><path fill="#d1e5da" fill-rule="nonzero" stroke="#6dae89" stroke-width="0.4" stroke-linecap="butt" stroke-linejoin="miter" stroke-miterlimit="4" transform="translate(20.409448819 5.476787402)" d="M 0 0m 0 68.736504489h 44.094488189l 11.464566929 -25.530701667v -15.711201026l -15.874015748 -27.494601796l -39.68503937 68.736504489Z "/><path fill="none" transform="translate(56.801476378 43.974970121)" d="M 0 0h 5.175v 6.273h -5.175v -6.273Z "/><g transform="translate(56.801476378 43.974970121)"><g transform="matrix(1 0 0 -1 0 6.174)"><use xlink:href="#g6B7358DE8FA5C1C77FC642525C9024B4" x="0" y="0" fill="#2e8b57" fill-rule="nonzero"/></g></g><path fill="none" stroke="#1f5fa8" stroke-width="1.6" stroke-linecap="butt" stroke-linejoin="miter" stroke-miterlimit="4" transform="translate(60.094488189 5.476787402)" d="M 0 0m 39.68503937 68.736504489l -39.68503937 -68.736504489"/><path fill="#ffffff" fill-rule="nonzero" stroke="#1f5fa8" stroke-width="0.6" stroke-linecap="butt" stroke-linejoin="miter" stroke-miterlimit="4" transform="translate(82.482735717 30.774173505)" d="M 0 0m 4.818897638 0c -2.658990614 0 -4.818897638 2.159907024 -4.818897638 4.818897638c 0 2.658990614 2.159907024 4.818897638 4.818897638 4.818897638c 2.658990614 0 4.818897638 -2.159907024 4.818897638 -4.818897638c 0 -2.658990614 -2.159907024 -4.818897638 -4.818897638 -4.818897638Z "/><path fill="none" transform="translate(85.145383355 33.020571142)" d="M 0 0h 4.3125v 5.145h -4.3125v -5.145Z "/><g transform="translate(85.145383308 33.020571095)"><g transform="matrix(1 0 0 -1 0 5.145)"><use xlink:href="#g37B0C1333AE2E95F0FD150BF103F9411" x="0" y="0" fill="#1f5fa8" fill-rule="nonzero"/></g></g><path fill="none" stroke="#c0392b" stroke-width="1.6" stroke-linecap="butt" stroke-linejoin="miter" stroke-miterlimit="4" transform="translate(20.409448819 5.476787402)" d="M 0 0m 39.68503937 0l -39.68503937 68.736504489"/><path fill="#ffffff" fill-rule="nonzero" stroke="#c0392b" stroke-width="0.6" stroke-linecap="butt" stroke-linejoin="miter" stroke-miterlimit="4" transform="translate(28.068445385 30.774173505)" d="M 0 0m 4.818897638 0c -2.658990614 0 -4.818897638 2.159907024 -4.818897638 4.818897638c 0 2.658990614 2.159907024 4.818897638 4.818897638 4.818897638c 2.658990614 0 4.818897638 -2.159907024 4.818897638 -4.818897638c 0 -2.658990614 -2.159907024 -4.818897638 -4.818897638 -4.818897638Z "/><path fill="none" transform="translate(30.731093023 33.020571142)" d="M 0 0h 4.3125v 5.145h -4.3125v -5.145Z "/><g transform="translate(30.731092976 33.020571095)"><g transform="matrix(1 0 0 -1 0 5.145)"><use xlink:href="#g90D2898789002F5EE2CBAF22BB02F058" x="0" y="0" fill="#c0392b" fill-rule="nonzero"/></g></g><path fill="none" stroke="#2e8b57" stroke-width="1.6" stroke-linecap="butt" stroke-linejoin="miter" stroke-miterlimit="4" transform="translate(20.409448819 74.213291891)" d="M 0 0h 79.37007874"/><path fill="#ffffff" fill-rule="nonzero" stroke="#2e8b57" stroke-width="0.6" stroke-linecap="butt" stroke-linejoin="miter" stroke-miterlimit="4" transform="translate(55.275590551 77.898331261)" d="M 0 0m 4.818897638 0c -2.658990614 0 -4.818897638 2.159907024 -4.818897638 4.818897638c 0 2.658990614 2.159907024 4.818897638 4.818897638 4.818897638c 2.658990614 0 4.818897638 -2.159907024 4.818897638 -4.818897638c 0 -2.658990614 -2.159907024 -4.818897638 -4.818897638 -4.818897638Z "/><path fill="none" transform="translate(57.938238189 80.103478899)" d="M 0 0h 4.3125v 5.2275h -4.3125v -5.2275Z "/><g transform="translate(57.938238142 80.103478804)"><g transform="matrix(1 0 0 -1 0 5.145)"><use xlink:href="#g1F54E5D64D8571579E9642DF6AE8D01B" x="0" y="0" fill="#2e8b57" fill-rule="nonzero"/></g></g><path fill="none" transform="translate(10.140028346 76.16258323)" d="M 0 0h 8.0664v 7.44h -8.0664v -7.44Z "/><g transform="translate(10.140028299 76.162583182)"><g transform="matrix(1 0 0 -1 0 5.464)"><use xlink:href="#gC364F1F2E60BB1AC87930E5E4B1CD4F1" x="0" y="0" fill="#000000" fill-rule="nonzero"/></g><g transform="matrix(1 0 0 -1 4.432 7.44)"><use xlink:href="#gB857CD5703F41BDF509E4EE0489893D" x="0" y="0" fill="#000000" fill-rule="nonzero"/></g></g><path fill="none" transform="translate(101.982548031 76.16258323)" d="M 0 0h 8.0664v 7.44h -8.0664v -7.44Z "/><g transform="translate(101.982547984 76.162583182)"><g transform="matrix(1 0 0 -1 0 5.464)"><use xlink:href="#gC364F1F2E60BB1AC87930E5E4B1CD4F1" x="0" y="0" fill="#000000" fill-rule="nonzero"/></g><g transform="matrix(1 0 0 -1 4.432 7.44)"><use xlink:href="#gD16162A8E6BC5125899DC596673576EF" x="0" y="0" fill="#000000" fill-rule="nonzero"/></g></g><path fill="none" transform="translate(47.557351181)" d="M 0 0h 8.0664v 7.552h -8.0664v -7.552Z "/><g transform="translate(47.557351134 -3.1e-8)"><g transform="matrix(1 0 0 -1 0 5.464)"><use xlink:href="#gC364F1F2E60BB1AC87930E5E4B1CD4F1" x="0" y="0" fill="#000000" fill-rule="nonzero"/></g><g transform="matrix(1 0 0 -1 4.432 7.44)"><use xlink:href="#g8620D4FBE966A3B5BE9D3ED2CA359DA3" x="0" y="0" fill="#000000" fill-rule="nonzero"/></g></g><path fill="#ffffff" fill-rule="nonzero" stroke="#000000" stroke-width="0.6" stroke-linecap="butt" stroke-linejoin="miter" stroke-miterlimit="4" transform="translate(0 36.058961182)" d="M 0 0m 4.818897638 0c -2.658990614 0 -4.818897638 2.159907024 -4.818897638 4.818897638c 0 2.658990614 2.159907024 4.818897638 4.818897638 4.818897638c 2.658990614 0 4.818897638 -2.159907024 4.818897638 -4.818897638c 0 -2.658990614 -2.159907024 -4.818897638 -4.818897638 -4.818897638Z "/><path fill="none" transform="translate(2.662647638 38.27535882)" d="M 0 0h 4.3125v 5.205h -4.3125v -5.205Z "/><g transform="translate(2.662647591 38.275358726)"><g transform="matrix(1 0 0 -1 0 5.1225)"><use xlink:href="#gCDBE20FAB3D5F8F6AE29EAF95EE205F0" x="0" y="0" fill="#000000" fill-rule="nonzero"/></g></g><path fill="none" stroke="#000000" stroke-width="0.9" stroke-linecap="butt" stroke-linejoin="miter" stroke-miterlimit="4" transform="translate(6.860396322 45.242954188)" d="M 0 0l 11.174765272 23.893679928"/><path fill="#000000" fill-rule="nonzero" stroke="#000000" stroke-width="0.9" stroke-linecap="butt" stroke-linejoin="miter" stroke-miterlimit="4" transform="translate(16.645741612 67.935152233)" d="M 0 0m 2.38014727 3.319837107l -0.261792174 -3.319837107l -0.728935117 1.201482011l -1.389419978 -0.21075472l 2.38014727 2.329109815Z "/><path fill="none" stroke="#000000" stroke-width="0.9" stroke-linecap="butt" stroke-linejoin="miter" stroke-miterlimit="4" transform="translate(20.409448819 10.330370665)" d="M 0 0m 0 63.882921226l 36.882821766 -63.882921226"/><path fill="#000000" fill-rule="nonzero" stroke="#000000" stroke-width="0.9" stroke-linecap="butt" stroke-linejoin="miter" stroke-miterlimit="4" transform="translate(55.889870804 8.305098789)" d="M 0 0m 2.571691117 0l -2.571691117 2.115716995l 1.402399779 -0.090444997l 0.62287222 1.259736335l 0.546419119 -3.285008334Z "/><path fill="#000000" fill-rule="nonzero" transform="translate(18.850393701 72.654236773)" d="M 0 0m 1.559055118 0c -0.860261669 0 -1.559055118 0.698793449 -1.559055118 1.559055118c 0 0.860261669 0.698793449 1.559055118 1.559055118 1.559055118c 0.860261669 0 1.559055118 -0.698793449 1.559055118 -1.559055118c 0 -0.860261669 -0.698793449 -1.559055118 -1.559055118 -1.559055118Z "/><path fill="none" transform="translate(23.244094488 66.030717088)" d="M 0 0h 4.633858268v 5.914858268h -4.633858268v -5.914858268Z "/><g transform="translate(23.244094378 66.030717025)"><g transform="matrix(1 0 0 -1 0.566929134 5.347929134)"><use xlink:href="#g3DC8A4469CA6EB96779304475843886E" x="0" y="0" fill="#404040" fill-rule="nonzero"/></g></g><path fill="#000000" fill-rule="nonzero" transform="translate(58.535433071 3.917732283)" d="M 0 0m 1.559055118 0c -0.860261669 0 -1.559055118 0.698793449 -1.559055118 1.559055118c 0 0.860261669 0.698793449 1.559055118 1.559055118 1.559055118c 0.860261669 0 1.559055118 -0.698793449 1.559055118 -1.559055118c 0 -0.860261669 -0.698793449 -1.559055118 -1.559055118 -1.559055118Z "/><path fill="none" stroke="#000000" stroke-width="1" stroke-linecap="butt" stroke-linejoin="miter" stroke-miterlimit="4" transform="translate(57.25984252 2.642141732)" d="M 0 0m 2.834645669 0c -1.564112126 0 -2.834645669 1.270533543 -2.834645669 2.834645669c 0 1.564112126 1.270533543 2.834645669 2.834645669 2.834645669c 1.564112126 0 2.834645669 -1.270533543 2.834645669 -2.834645669c 0 -1.564112126 -1.270533543 -2.834645669 -2.834645669 -2.834645669Z "/></g><g transform="matrix(1 0 0 -1 131.089744882 7.564322835)"><use xlink:href="#g2D3B63B3D37C6B08D379552FD2A985A0" x="0" y="0" fill="#000000" fill-rule="nonzero"/><use xlink:href="#g2692DE81FC10DE1074E406F7B73B8399" x="5.004" y="0" fill="#000000" fill-rule="nonzero"/><use xlink:href="#g7768D25C11147077D781E76462AE0DFE" x="10.26" y="0" fill="#000000" fill-rule="nonzero"/><use xlink:href="#g42758B220A590C72E0B14D3F7AC384D4" x="14.256" y="0" fill="#000000" fill-rule="nonzero"/><use xlink:href="#gB05A65E9B9DCB70494EDEBCC17A7EEF0" x="18.252" y="0" fill="#000000" fill-rule="nonzero"/><use xlink:href="#gE7B9C7C0FFA1C6387431E1F5139D63BA" x="20.754" y="0" fill="#000000" fill-rule="nonzero"/><use xlink:href="#g3E394391E01B3AAF023A58424F90F9CA" x="25.254" y="0" fill="#000000" fill-rule="nonzero"/><use xlink:href="#gE7B9C7C0FFA1C6387431E1F5139D63BA" x="30.753" y="0" fill="#000000" fill-rule="nonzero"/><use xlink:href="#g42758B220A590C72E0B14D3F7AC384D4" x="35.253" y="0" fill="#000000" fill-rule="nonzero"/><use xlink:href="#g9DCAD2B05394C25EE96FF9BEA25297A7" x="39.249" y="0" fill="#000000" fill-rule="nonzero"/><use xlink:href="#gB05A65E9B9DCB70494EDEBCC17A7EEF0" x="42.75" y="0" fill="#000000" fill-rule="nonzero"/><use xlink:href="#g51F09839BC673D286E7D50E7467ED61B" x="45.252" y="0" fill="#000000" fill-rule="nonzero"/><use xlink:href="#g7059B17DFD549B7742B875C34A657FAC" x="49.752" y="0" fill="#000000" fill-rule="nonzero"/></g><g transform="matrix(1 0 0 -1 188.842744882 7.564322835)"><use xlink:href="#gEE1C12DF893C22344B42C6188FC82023" x="0" y="0" fill="#000000" fill-rule="nonzero"/></g><g transform="matrix(1 0 0 -1 193.342744882 7.564322835)"><use xlink:href="#g40DB25CD2B59AB3B3B2718087D4E7C07" x="0" y="0" fill="#000000" fill-rule="nonzero"/><use xlink:href="#g568CDDAF4E8C4679B9B9C27C586DEB8E" x="5.499" y="0" fill="#000000" fill-rule="nonzero"/><use xlink:href="#g2692DE81FC10DE1074E406F7B73B8399" x="12.996" y="0" fill="#000000" fill-rule="nonzero"/><use xlink:href="#gB05A65E9B9DCB70494EDEBCC17A7EEF0" x="18" y="0" fill="#000000" fill-rule="nonzero"/><use xlink:href="#g471AB65612D8F26489435CB642BA4E21" x="20.502" y="0" fill="#000000" fill-rule="nonzero"/><use xlink:href="#g51F09839BC673D286E7D50E7467ED61B" x="25.002" y="0" fill="#000000" fill-rule="nonzero"/><use xlink:href="#g9DCAD2B05394C25EE96FF9BEA25297A7" x="29.502" y="0" fill="#000000" fill-rule="nonzero"/><use xlink:href="#gC0A3BADC8CC2E8A801C9EFE70CA8CA50" x="33.003" y="0" fill="#000000" fill-rule="nonzero"/></g><g transform="translate(125.466270866 11.564322835)"><path fill="#cedcec" fill-rule="nonzero" stroke="#628fc2" stroke-width="0.4" stroke-linecap="butt" stroke-linejoin="miter" stroke-miterlimit="4" transform="translate(64.503937008 48.682590223)" d="M 0 0m 0 25.530701667h 35.275590551l -13.228346457 -22.912168163l -10.582677165 -2.618533504l -11.464566929 25.530701667Z "/><path fill="none" transform="translate(79.113287402 59.015574433)" d="M 0 0h 5.175v 6.174h -5.175v -6.174Z "/><g transform="translate(79.113287402 59.015574292)"><g transform="matrix(1 0 0 -1 0 6.174)"><use xlink:href="#g6EEBC0A4D3D4029D018AE3D0B5DF8FCE" x="0" y="0" fill="#1f5fa8" fill-rule="nonzero"/></g></g><path fill="#f1d3d0" fill-rule="nonzero" stroke="#d3746b" stroke-width="0.4" stroke-linecap="butt" stroke-linejoin="miter" stroke-miterlimit="4" transform="translate(75.968503937 32.971389197)" d="M 0 0m 10.582677165 18.32973453l -10.582677165 -18.32973453v 15.711201026l 10.582677165 2.618533504Z "/><path fill="none" transform="translate(78.541830709 40.608100964)" d="M 0 0h 4.025v 4.802h -4.025v -4.802Z "/><g transform="translate(78.541830646 40.608100948)"><g transform="matrix(1 0 0 -1 0 4.802)"><use xlink:href="#g1CB6D3579CA06DCF1B0DB2EB77B8DCD7" x="0" y="0" fill="#c0392b" fill-rule="nonzero"/></g></g><path fill="#d1e5da" fill-rule="nonzero" stroke="#6dae89" stroke-width="0.4" stroke-linecap="butt" stroke-linejoin="miter" stroke-miterlimit="4" transform="translate(20.409448819 5.476787402)" d="M 0 0m 0 68.736504489h 44.094488189l 11.464566929 -25.530701667v -15.711201026l -15.874015748 -27.494601796l -39.68503937 68.736504489Z "/><path fill="none" transform="translate(56.801476378 43.974970121)" d="M 0 0h 5.175v 6.273h -5.175v -6.273Z "/><g transform="translate(56.801476378 43.974970121)"><g transform="matrix(1 0 0 -1 0 6.174)"><use xlink:href="#g6B7358DE8FA5C1C77FC642525C9024B4" x="0" y="0" fill="#2e8b57" fill-rule="nonzero"/></g></g><path fill="none" stroke="#1f5fa8" stroke-width="1.6" stroke-linecap="butt" stroke-linejoin="miter" stroke-miterlimit="4" transform="translate(60.094488189 5.476787402)" d="M 0 0m 39.68503937 68.736504489l -39.68503937 -68.736504489"/><path fill="#ffffff" fill-rule="nonzero" stroke="#1f5fa8" stroke-width="0.6" stroke-linecap="butt" stroke-linejoin="miter" stroke-miterlimit="4" transform="translate(82.482735717 30.774173505)" d="M 0 0m 4.818897638 0c -2.658990614 0 -4.818897638 2.159907024 -4.818897638 4.818897638c 0 2.658990614 2.159907024 4.818897638 4.818897638 4.818897638c 2.658990614 0 4.818897638 -2.159907024 4.818897638 -4.818897638c 0 -2.658990614 -2.159907024 -4.818897638 -4.818897638 -4.818897638Z "/><path fill="none" transform="translate(85.145383355 33.020571142)" d="M 0 0h 4.3125v 5.145h -4.3125v -5.145Z "/><g transform="translate(85.145383308 33.020571095)"><g transform="matrix(1 0 0 -1 0 5.145)"><use xlink:href="#g37B0C1333AE2E95F0FD150BF103F9411" x="0" y="0" fill="#1f5fa8" fill-rule="nonzero"/></g></g><path fill="none" stroke="#c0392b" stroke-width="1.6" stroke-linecap="butt" stroke-linejoin="miter" stroke-miterlimit="4" transform="translate(20.409448819 5.476787402)" d="M 0 0m 39.68503937 0l -39.68503937 68.736504489"/><path fill="#ffffff" fill-rule="nonzero" stroke="#c0392b" stroke-width="0.6" stroke-linecap="butt" stroke-linejoin="miter" stroke-miterlimit="4" transform="translate(28.068445385 30.774173505)" d="M 0 0m 4.818897638 0c -2.658990614 0 -4.818897638 2.159907024 -4.818897638 4.818897638c 0 2.658990614 2.159907024 4.818897638 4.818897638 4.818897638c 2.658990614 0 4.818897638 -2.159907024 4.818897638 -4.818897638c 0 -2.658990614 -2.159907024 -4.818897638 -4.818897638 -4.818897638Z "/><path fill="none" transform="translate(30.731093023 33.020571142)" d="M 0 0h 4.3125v 5.145h -4.3125v -5.145Z "/><g transform="translate(30.731092976 33.020571095)"><g transform="matrix(1 0 0 -1 0 5.145)"><use xlink:href="#g90D2898789002F5EE2CBAF22BB02F058" x="0" y="0" fill="#c0392b" fill-rule="nonzero"/></g></g><path fill="none" stroke="#2e8b57" stroke-width="1.6" stroke-linecap="butt" stroke-linejoin="miter" stroke-miterlimit="4" transform="translate(20.409448819 74.213291891)" d="M 0 0h 79.37007874"/><path fill="#ffffff" fill-rule="nonzero" stroke="#2e8b57" stroke-width="0.6" stroke-linecap="butt" stroke-linejoin="miter" stroke-miterlimit="4" transform="translate(55.275590551 77.898331261)" d="M 0 0m 4.818897638 0c -2.658990614 0 -4.818897638 2.159907024 -4.818897638 4.818897638c 0 2.658990614 2.159907024 4.818897638 4.818897638 4.818897638c 2.658990614 0 4.818897638 -2.159907024 4.818897638 -4.818897638c 0 -2.658990614 -2.159907024 -4.818897638 -4.818897638 -4.818897638Z "/><path fill="none" transform="translate(57.938238189 80.103478899)" d="M 0 0h 4.3125v 5.2275h -4.3125v -5.2275Z "/><g transform="translate(57.938238142 80.103478804)"><g transform="matrix(1 0 0 -1 0 5.145)"><use xlink:href="#g1F54E5D64D8571579E9642DF6AE8D01B" x="0" y="0" fill="#2e8b57" fill-rule="nonzero"/></g></g><path fill="none" transform="translate(10.140028346 76.16258323)" d="M 0 0h 8.0664v 7.44h -8.0664v -7.44Z "/><g transform="translate(10.140028299 76.162583182)"><g transform="matrix(1 0 0 -1 0 5.464)"><use xlink:href="#gC364F1F2E60BB1AC87930E5E4B1CD4F1" x="0" y="0" fill="#000000" fill-rule="nonzero"/></g><g transform="matrix(1 0 0 -1 4.432 7.44)"><use xlink:href="#gB857CD5703F41BDF509E4EE0489893D" x="0" y="0" fill="#000000" fill-rule="nonzero"/></g></g><path fill="none" transform="translate(101.982548031 76.16258323)" d="M 0 0h 8.0664v 7.44h -8.0664v -7.44Z "/><g transform="translate(101.982547984 76.162583182)"><g transform="matrix(1 0 0 -1 0 5.464)"><use xlink:href="#gC364F1F2E60BB1AC87930E5E4B1CD4F1" x="0" y="0" fill="#000000" fill-rule="nonzero"/></g><g transform="matrix(1 0 0 -1 4.432 7.44)"><use xlink:href="#gD16162A8E6BC5125899DC596673576EF" x="0" y="0" fill="#000000" fill-rule="nonzero"/></g></g><path fill="none" transform="translate(47.557351181)" d="M 0 0h 8.0664v 7.552h -8.0664v -7.552Z "/><g transform="translate(47.557351134 -3.1e-8)"><g transform="matrix(1 0 0 -1 0 5.464)"><use xlink:href="#gC364F1F2E60BB1AC87930E5E4B1CD4F1" x="0" y="0" fill="#000000" fill-rule="nonzero"/></g><g transform="matrix(1 0 0 -1 4.432 7.44)"><use xlink:href="#g8620D4FBE966A3B5BE9D3ED2CA359DA3" x="0" y="0" fill="#000000" fill-rule="nonzero"/></g></g><path fill="#ffffff" fill-rule="nonzero" stroke="#000000" stroke-width="0.6" stroke-linecap="butt" stroke-linejoin="miter" stroke-miterlimit="4" transform="translate(0 36.058961182)" d="M 0 0m 4.818897638 0c -2.658990614 0 -4.818897638 2.159907024 -4.818897638 4.818897638c 0 2.658990614 2.159907024 4.818897638 4.818897638 4.818897638c 2.658990614 0 4.818897638 -2.159907024 4.818897638 -4.818897638c 0 -2.658990614 -2.159907024 -4.818897638 -4.818897638 -4.818897638Z "/><path fill="none" transform="translate(2.662647638 38.27535882)" d="M 0 0h 4.3125v 5.205h -4.3125v -5.205Z "/><g transform="translate(2.662647591 38.275358726)"><g transform="matrix(1 0 0 -1 0 5.1225)"><use xlink:href="#gCDBE20FAB3D5F8F6AE29EAF95EE205F0" x="0" y="0" fill="#000000" fill-rule="nonzero"/></g></g><path fill="none" stroke="#000000" stroke-width="0.9" stroke-linecap="butt" stroke-linejoin="miter" stroke-miterlimit="4" transform="translate(9.365771259 42.474015052)" d="M 0 0l 85.125688256 29.882928176"/><path fill="#000000" fill-rule="nonzero" stroke="#000000" stroke-width="0.9" stroke-linecap="butt" stroke-linejoin="miter" stroke-miterlimit="4" transform="translate(93.36863315 70.995456098)" d="M 0 0m 3.329397307 2.136092485l -2.554792075 -2.136092485l 0.348221057 1.361487253l -1.122826289 0.845083765l 3.329397307 -0.070478533Z "/><path fill="none" stroke="#000000" stroke-width="0.9" stroke-linecap="butt" stroke-linejoin="miter" stroke-miterlimit="4" transform="translate(70.108372215 74.213291891)" d="M 0 0m 29.671155344 0h -29.671155344"/><path fill="#000000" fill-rule="nonzero" stroke="#000000" stroke-width="0.9" stroke-linecap="butt" stroke-linejoin="miter" stroke-miterlimit="4" transform="translate(67.769789669 73.044000552)" d="M 0 0m 0 1.169291339l 3.118110236 1.169291339l -0.779527559 -1.169291339l 0.779527559 -1.169291339l -3.118110236 1.169291339Z "/><path fill="none" stroke="#000000" stroke-width="0.9" stroke-linecap="butt" stroke-linejoin="miter" stroke-miterlimit="4" transform="translate(64.503937008 53.795210802)" d="M 0 0m 0 20.418081089l 9.168743588 -20.418081089"/><path fill="#000000" fill-rule="nonzero" stroke="#000000" stroke-width="0.9" stroke-linecap="butt" stroke-linejoin="miter" stroke-miterlimit="4" transform="translate(72.286671191 51.661849308)" d="M 0 0m 2.343995927 0l -2.343995927 2.365488702l 1.386009518 -0.232127272l 0.747351912 1.190113681l 0.210634497 -3.323475111Z "/><path fill="#000000" fill-rule="nonzero" transform="translate(98.220472441 72.654236773)" d="M 0 0m 1.559055118 0c -0.860261669 0 -1.559055118 0.698793449 -1.559055118 1.559055118c 0 0.860261669 0.698793449 1.559055118 1.559055118 1.559055118c 0.860261669 0 1.559055118 -0.698793449 1.559055118 -1.559055118c 0 -0.860261669 -0.698793449 -1.559055118 -1.559055118 -1.559055118Z "/><path fill="none" transform="translate(102.614173228 66.030717088)" d="M 0 0h 4.633858268v 5.914858268h -4.633858268v -5.914858268Z "/><g transform="translate(102.614173118 66.030717025)"><g transform="matrix(1 0 0 -1 0.566929134 5.347929134)"><use xlink:href="#g3DC8A4469CA6EB96779304475843886E" x="0" y="0" fill="#404040" fill-rule="nonzero"/></g></g><path fill="#000000" fill-rule="nonzero" transform="translate(62.94488189 72.654236773)" d="M 0 0m 1.559055118 0c -0.860261669 0 -1.559055118 0.698793449 -1.559055118 1.559055118c 0 0.860261669 0.698793449 1.559055118 1.559055118 1.559055118c 0.860261669 0 1.559055118 -0.698793449 1.559055118 -1.559055118c 0 -0.860261669 -0.698793449 -1.559055118 -1.559055118 -1.559055118Z "/><path fill="none" transform="translate(67.338582677 66.030717088)" d="M 0 0h 4.633858268v 5.914858268h -4.633858268v -5.914858268Z "/><g transform="translate(67.338582567 66.030717025)"><g transform="matrix(1 0 0 -1 0.566929134 5.347929134)"><use xlink:href="#gE83F90B57F60E7FC407FF6E62CD18B9C" x="0" y="0" fill="#404040" fill-rule="nonzero"/></g></g><path fill="#000000" fill-rule="nonzero" transform="translate(74.409448819 47.123535105)" d="M 0 0m 1.559055118 0c -0.860261669 0 -1.559055118 0.698793449 -1.559055118 1.559055118c 0 0.860261669 0.698793449 1.559055118 1.559055118 1.559055118c 0.860261669 0 1.559055118 -0.698793449 1.559055118 -1.559055118c 0 -0.860261669 -0.698793449 -1.559055118 -1.559055118 -1.559055118Z "/><path fill="none" stroke="#000000" stroke-width="1" stroke-linecap="butt" stroke-linejoin="miter" stroke-miterlimit="4" transform="translate(73.133858268 45.847944554)" d="M 0 0m 2.834645669 0c -1.564112126 0 -2.834645669 1.270533543 -2.834645669 2.834645669c 0 1.564112126 1.270533543 2.834645669 2.834645669 2.834645669c 1.564112126 0 2.834645669 -1.270533543 2.834645669 -2.834645669c 0 -1.564112126 -1.270533543 -2.834645669 -2.834645669 -2.834645669Z "/></g><g transform="matrix(1 0 0 -1 256.911692913 7.564322835)"><use xlink:href="#g2D3B63B3D37C6B08D379552FD2A985A0" x="0" y="0" fill="#000000" fill-rule="nonzero"/><use xlink:href="#g2692DE81FC10DE1074E406F7B73B8399" x="5.004" y="0" fill="#000000" fill-rule="nonzero"/><use xlink:href="#g7768D25C11147077D781E76462AE0DFE" x="10.26" y="0" fill="#000000" fill-rule="nonzero"/><use xlink:href="#g42758B220A590C72E0B14D3F7AC384D4" x="14.256" y="0" fill="#000000" fill-rule="nonzero"/><use xlink:href="#gB05A65E9B9DCB70494EDEBCC17A7EEF0" x="18.252" y="0" fill="#000000" fill-rule="nonzero"/><use xlink:href="#gE7B9C7C0FFA1C6387431E1F5139D63BA" x="20.754" y="0" fill="#000000" fill-rule="nonzero"/><use xlink:href="#g3E394391E01B3AAF023A58424F90F9CA" x="25.254" y="0" fill="#000000" fill-rule="nonzero"/><use xlink:href="#gE7B9C7C0FFA1C6387431E1F5139D63BA" x="30.753" y="0" fill="#000000" fill-rule="nonzero"/><use xlink:href="#g42758B220A590C72E0B14D3F7AC384D4" x="35.253" y="0" fill="#000000" fill-rule="nonzero"/><use xlink:href="#g9DCAD2B05394C25EE96FF9BEA25297A7" x="39.249" y="0" fill="#000000" fill-rule="nonzero"/><use xlink:href="#gB05A65E9B9DCB70494EDEBCC17A7EEF0" x="42.75" y="0" fill="#000000" fill-rule="nonzero"/><use xlink:href="#g51F09839BC673D286E7D50E7467ED61B" x="45.252" y="0" fill="#000000" fill-rule="nonzero"/><use xlink:href="#g7059B17DFD549B7742B875C34A657FAC" x="49.752" y="0" fill="#000000" fill-rule="nonzero"/></g><g transform="matrix(1 0 0 -1 314.664692913 7.564322835)"><use xlink:href="#g654CA12723E04161436B9C24DF1E59B8" x="0" y="0" fill="#000000" fill-rule="nonzero"/></g><g transform="matrix(1 0 0 -1 319.164692913 7.564322835)"><use xlink:href="#g40DB25CD2B59AB3B3B2718087D4E7C07" x="0" y="0" fill="#000000" fill-rule="nonzero"/><use xlink:href="#g1A41EFF28FBBAE64B59CDCABE7003CA3" x="5.499" y="0" fill="#000000" fill-rule="nonzero"/><use xlink:href="#g2692DE81FC10DE1074E406F7B73B8399" x="12.996" y="0" fill="#000000" fill-rule="nonzero"/><use xlink:href="#gB05A65E9B9DCB70494EDEBCC17A7EEF0" x="18" y="0" fill="#000000" fill-rule="nonzero"/><use xlink:href="#g471AB65612D8F26489435CB642BA4E21" x="20.502" y="0" fill="#000000" fill-rule="nonzero"/><use xlink:href="#g51F09839BC673D286E7D50E7467ED61B" x="25.002" y="0" fill="#000000" fill-rule="nonzero"/><use xlink:href="#g9DCAD2B05394C25EE96FF9BEA25297A7" x="29.502" y="0" fill="#000000" fill-rule="nonzero"/></g><g transform="translate(249.515218898 11.564322835)"><path fill="#cedcec" fill-rule="nonzero" stroke="#628fc2" stroke-width="0.4" stroke-linecap="butt" stroke-linejoin="miter" stroke-miterlimit="4" transform="translate(64.503937008 48.682590223)" d="M 0 0m 0 25.530701667h 35.275590551l -13.228346457 -22.912168163l -10.582677165 -2.618533504l -11.464566929 25.530701667Z "/><path fill="none" transform="translate(79.113287402 59.015574433)" d="M 0 0h 5.175v 6.174h -5.175v -6.174Z "/><g transform="translate(79.113287402 59.015574292)"><g transform="matrix(1 0 0 -1 0 6.174)"><use xlink:href="#g6EEBC0A4D3D4029D018AE3D0B5DF8FCE" x="0" y="0" fill="#1f5fa8" fill-rule="nonzero"/></g></g><path fill="#f1d3d0" fill-rule="nonzero" stroke="#d3746b" stroke-width="0.4" stroke-linecap="butt" stroke-linejoin="miter" stroke-miterlimit="4" transform="translate(75.968503937 32.971389197)" d="M 0 0m 10.582677165 18.32973453l -10.582677165 -18.32973453v 15.711201026l 10.582677165 2.618533504Z "/><path fill="none" transform="translate(78.541830709 40.608100964)" d="M 0 0h 4.025v 4.802h -4.025v -4.802Z "/><g transform="translate(78.541830646 40.608100948)"><g transform="matrix(1 0 0 -1 0 4.802)"><use xlink:href="#g1CB6D3579CA06DCF1B0DB2EB77B8DCD7" x="0" y="0" fill="#c0392b" fill-rule="nonzero"/></g></g><path fill="#d1e5da" fill-rule="nonzero" stroke="#6dae89" stroke-width="0.4" stroke-linecap="butt" stroke-linejoin="miter" stroke-miterlimit="4" transform="translate(20.409448819 5.476787402)" d="M 0 0m 0 68.736504489h 44.094488189l 11.464566929 -25.530701667v -15.711201026l -15.874015748 -27.494601796l -39.68503937 68.736504489Z "/><path fill="none" transform="translate(56.801476378 43.974970121)" d="M 0 0h 5.175v 6.273h -5.175v -6.273Z "/><g transform="translate(56.801476378 43.974970121)"><g transform="matrix(1 0 0 -1 0 6.174)"><use xlink:href="#g6B7358DE8FA5C1C77FC642525C9024B4" x="0" y="0" fill="#2e8b57" fill-rule="nonzero"/></g></g><path fill="none" stroke="#1f5fa8" stroke-width="1.6" stroke-linecap="butt" stroke-linejoin="miter" stroke-miterlimit="4" transform="translate(60.094488189 5.476787402)" d="M 0 0m 39.68503937 68.736504489l -39.68503937 -68.736504489"/><path fill="#ffffff" fill-rule="nonzero" stroke="#1f5fa8" stroke-width="0.6" stroke-linecap="butt" stroke-linejoin="miter" stroke-miterlimit="4" transform="translate(82.482735717 30.774173505)" d="M 0 0m 4.818897638 0c -2.658990614 0 -4.818897638 2.159907024 -4.818897638 4.818897638c 0 2.658990614 2.159907024 4.818897638 4.818897638 4.818897638c 2.658990614 0 4.818897638 -2.159907024 4.818897638 -4.818897638c 0 -2.658990614 -2.159907024 -4.818897638 -4.818897638 -4.818897638Z "/><path fill="none" transform="translate(85.145383355 33.020571142)" d="M 0 0h 4.3125v 5.145h -4.3125v -5.145Z "/><g transform="translate(85.145383308 33.020571095)"><g transform="matrix(1 0 0 -1 0 5.145)"><use xlink:href="#g37B0C1333AE2E95F0FD150BF103F9411" x="0" y="0" fill="#1f5fa8" fill-rule="nonzero"/></g></g><path fill="none" stroke="#c0392b" stroke-width="1.6" stroke-linecap="butt" stroke-linejoin="miter" stroke-miterlimit="4" transform="translate(20.409448819 5.476787402)" d="M 0 0m 39.68503937 0l -39.68503937 68.736504489"/><path fill="#ffffff" fill-rule="nonzero" stroke="#c0392b" stroke-width="0.6" stroke-linecap="butt" stroke-linejoin="miter" stroke-miterlimit="4" transform="translate(28.068445385 30.774173505)" d="M 0 0m 4.818897638 0c -2.658990614 0 -4.818897638 2.159907024 -4.818897638 4.818897638c 0 2.658990614 2.159907024 4.818897638 4.818897638 4.818897638c 2.658990614 0 4.818897638 -2.159907024 4.818897638 -4.818897638c 0 -2.658990614 -2.159907024 -4.818897638 -4.818897638 -4.818897638Z "/><path fill="none" transform="translate(30.731093023 33.020571142)" d="M 0 0h 4.3125v 5.145h -4.3125v -5.145Z "/><g transform="translate(30.731092976 33.020571095)"><g transform="matrix(1 0 0 -1 0 5.145)"><use xlink:href="#g90D2898789002F5EE2CBAF22BB02F058" x="0" y="0" fill="#c0392b" fill-rule="nonzero"/></g></g><path fill="none" stroke="#2e8b57" stroke-width="1.6" stroke-linecap="butt" stroke-linejoin="miter" stroke-miterlimit="4" transform="translate(20.409448819 74.213291891)" d="M 0 0h 79.37007874"/><path fill="#ffffff" fill-rule="nonzero" stroke="#2e8b57" stroke-width="0.6" stroke-linecap="butt" stroke-linejoin="miter" stroke-miterlimit="4" transform="translate(55.275590551 77.898331261)" d="M 0 0m 4.818897638 0c -2.658990614 0 -4.818897638 2.159907024 -4.818897638 4.818897638c 0 2.658990614 2.159907024 4.818897638 4.818897638 4.818897638c 2.658990614 0 4.818897638 -2.159907024 4.818897638 -4.818897638c 0 -2.658990614 -2.159907024 -4.818897638 -4.818897638 -4.818897638Z "/><path fill="none" transform="translate(57.938238189 80.103478899)" d="M 0 0h 4.3125v 5.2275h -4.3125v -5.2275Z "/><g transform="translate(57.938238142 80.103478804)"><g transform="matrix(1 0 0 -1 0 5.145)"><use xlink:href="#g1F54E5D64D8571579E9642DF6AE8D01B" x="0" y="0" fill="#2e8b57" fill-rule="nonzero"/></g></g><path fill="none" transform="translate(10.140028346 76.16258323)" d="M 0 0h 8.0664v 7.44h -8.0664v -7.44Z "/><g transform="translate(10.140028299 76.162583182)"><g transform="matrix(1 0 0 -1 0 5.464)"><use xlink:href="#gC364F1F2E60BB1AC87930E5E4B1CD4F1" x="0" y="0" fill="#000000" fill-rule="nonzero"/></g><g transform="matrix(1 0 0 -1 4.432 7.44)"><use xlink:href="#gB857CD5703F41BDF509E4EE0489893D" x="0" y="0" fill="#000000" fill-rule="nonzero"/></g></g><path fill="none" transform="translate(101.982548031 76.16258323)" d="M 0 0h 8.0664v 7.44h -8.0664v -7.44Z "/><g transform="translate(101.982547984 76.162583182)"><g transform="matrix(1 0 0 -1 0 5.464)"><use xlink:href="#gC364F1F2E60BB1AC87930E5E4B1CD4F1" x="0" y="0" fill="#000000" fill-rule="nonzero"/></g><g transform="matrix(1 0 0 -1 4.432 7.44)"><use xlink:href="#gD16162A8E6BC5125899DC596673576EF" x="0" y="0" fill="#000000" fill-rule="nonzero"/></g></g><path fill="none" transform="translate(47.557351181)" d="M 0 0h 8.0664v 7.552h -8.0664v -7.552Z "/><g transform="translate(47.557351134 -3.1e-8)"><g transform="matrix(1 0 0 -1 0 5.464)"><use xlink:href="#gC364F1F2E60BB1AC87930E5E4B1CD4F1" x="0" y="0" fill="#000000" fill-rule="nonzero"/></g><g transform="matrix(1 0 0 -1 4.432 7.44)"><use xlink:href="#g8620D4FBE966A3B5BE9D3ED2CA359DA3" x="0" y="0" fill="#000000" fill-rule="nonzero"/></g></g><path fill="#ffffff" fill-rule="nonzero" stroke="#000000" stroke-width="0.6" stroke-linecap="butt" stroke-linejoin="miter" stroke-miterlimit="4" transform="translate(0 36.058961182)" d="M 0 0m 4.818897638 0c -2.658990614 0 -4.818897638 2.159907024 -4.818897638 4.818897638c 0 2.658990614 2.159907024 4.818897638 4.818897638 4.818897638c 2.658990614 0 4.818897638 -2.159907024 4.818897638 -4.818897638c 0 -2.658990614 -2.159907024 -4.818897638 -4.818897638 -4.818897638Z "/><path fill="none" transform="translate(2.662647638 38.27535882)" d="M 0 0h 4.3125v 5.205h -4.3125v -5.205Z "/><g transform="translate(2.662647591 38.275358726)"><g transform="matrix(1 0 0 -1 0 5.1225)"><use xlink:href="#gCDBE20FAB3D5F8F6AE29EAF95EE205F0" x="0" y="0" fill="#000000" fill-rule="nonzero"/></g></g><path fill="none" stroke="#000000" stroke-width="0.9" stroke-linecap="butt" stroke-linejoin="miter" stroke-miterlimit="4" transform="translate(8.876894013 8.499374479)" d="M 0 0m 0 29.779553818l 46.498096178 -29.779553818"/><path fill="#000000" fill-rule="nonzero" stroke="#000000" stroke-width="0.9" stroke-linecap="butt" stroke-linejoin="miter" stroke-miterlimit="4" transform="translate(54.08792665 7.238128804)" d="M 0 0m 3.256385193 0l -3.256385193 0.697000048l 1.287063434 0.564245647l -0.025817738 1.405076111l 1.995139497 -2.666321807Z "/><path fill="#000000" fill-rule="nonzero" transform="translate(58.535433071 3.917732283)" d="M 0 0m 1.559055118 0c -0.860261669 0 -1.559055118 0.698793449 -1.559055118 1.559055118c 0 0.860261669 0.698793449 1.559055118 1.559055118 1.559055118c 0.860261669 0 1.559055118 -0.698793449 1.559055118 -1.559055118c 0 -0.860261669 -0.698793449 -1.559055118 -1.559055118 -1.559055118Z "/><path fill="none" stroke="#000000" stroke-width="1" stroke-linecap="butt" stroke-linejoin="miter" stroke-miterlimit="4" transform="translate(57.25984252 2.642141732)" d="M 0 0m 2.834645669 0c -1.564112126 0 -2.834645669 1.270533543 -2.834645669 2.834645669c 0 1.564112126 1.270533543 2.834645669 2.834645669 2.834645669c 1.564112126 0 2.834645669 -1.270533543 2.834645669 -2.834645669c 0 -1.564112126 -1.270533543 -2.834645669 -2.834645669 -2.834645669Z "/></g><defs><symbol id="g2D3B63B3D37C6B08D379552FD2A985A0" overflow="visible"><path d="M 0 0m 0.504 1.872v -0.954c 0 -1.008 0 -1.044 0.009 -1.062c 0.018 -0.036 0.036 -0.054 0.09 -0.054c 0.036 0 0.054 0.009 0.072 0.027c 0.009 0.009 0.09 0.135 0.198 0.297l 0.189 0.306c 0.387 -0.387 0.927 -0.63 1.656 -0.63c 1.020578522 0 1.773 0.859922562 1.773 1.872c 0 0.882 -0.576 1.611 -1.269 1.8c -0.031306641 0.00853418 -1.269 0.306 -1.323 0.324c -0.435110641 0.145036835 -0.819 0.567 -0.819 1.125c 0 0.684 0.585 1.17 1.197 1.17c 1.086232544 0 1.62 -0.81 1.746 -1.881c 0.0095224 -0.080940125 0.027 -0.108 0.108 -0.108c 0.063 0 0.099 0.018 0.117 0.054v 2.052c 0 0.126 -0.063 0.144 -0.108 0.144c -0.036 0 -0.056724609 -0.015635742 -0.072 -0.036c -0.027 -0.036 -0.351 -0.576 -0.369 -0.594h -0.009c -0.306 0.288 -0.621 0.621 -1.476 0.621c -1.019487305 0 -1.71 -0.891 -1.71 -1.701c 0 -1.049193237 0.699778564 -1.536656616 1.188 -1.692c 0.162 -0.063 1.314 -0.315 1.449 -0.378c 0.399184113 -0.149694214 0.765 -0.59327449 0.765 -1.206000137c 0 -0.568027222 -0.365951843 -1.278 -1.197 -1.278c -1.098 0 -1.899 0.603 -1.971 1.683l -0.009 0.162c -0.004984634 0.089723145 -0.045 0.108 -0.117 0.108c -0.099 0 -0.108 -0.063 -0.108 -0.171Z "/></symbol><symbol id="g2692DE81FC10DE1074E406F7B73B8399" overflow="visible"><path d="M 0 0m 0.252 3.6c 0.63 0 0.702 -0.045 0.702 -0.468v -4.23c 0 -0.36 -0.117 -0.369 -0.702 -0.369v -0.279c 0.207 0 0.882 0.027 1.008 0.027c 0.162 0 0.855 -0.027 1.017 -0.027v 0.279c -0.603 0 -0.702 0 -0.702 0.414v 1.584c 0.135 -0.324 0.603 -0.63 1.098 -0.63c 1.031431641 0 2.016 0.809474167 2.016 2.088c 0 1.053 -0.84412793 1.989 -1.872 1.989c -0.351 0 -0.801 -0.072 -1.269 -0.594v 0.594l -1.296 -0.099Z m 1.323 -2.682v 2.106c 0.216 0.396 0.621 0.72 1.17 0.72c 0.558 0 1.188 -0.621 1.188 -1.809c 0 -1.233173035 -0.738 -1.836 -1.278 -1.836c -0.711 0 -1.044 0.648 -1.08 0.819Z "/></symbol><symbol id="g7768D25C11147077D781E76462AE0DFE" overflow="visible"><path d="M 0 0m 3.492 1.035c -0.288 -0.828 -0.99 -0.909 -1.206 -0.909c -0.315 0 -0.531 0.117 -0.729 0.279c -0.378 0.315 -0.558 0.81 -0.558 1.539v 0.135h 2.574c 0.144 0 0.162 0.027 0.162 0.18c 0 1.035 -0.585 1.773 -1.611 1.773c -1.098 0 -1.872 -0.963 -1.872 -2.052c 0 -1.242 0.963 -2.079 1.998 -2.079c 1.062 0 1.485 0.981 1.485 1.17c 0 0.054 -0.027 0.108 -0.108 0.108c -0.063 0 -0.099 -0.036 -0.135 -0.144Z m -1.377 2.799c 0.909 0 1.026 -1.17 1.026 -1.53v -0.027h -2.133v 0.063c 0.072 1.188 0.747 1.494 1.107 1.494Z "/></symbol><symbol id="g42758B220A590C72E0B14D3F7AC384D4" overflow="visible"><path d="M 0 0m 2.268 -0.099c 1.134 0 1.467 1.026 1.467 1.179c 0 0.054 -0.045 0.081 -0.126 0.081c -0.072 0 -0.09 -0.018 -0.108 -0.081c -0.171 -0.54 -0.522 -0.954 -1.179 -0.954c -0.531 0 -1.269 0.468 -1.269 1.836c 0 0.729 0.162 1.161 0.486 1.53c 0.198 0.198 0.405 0.306 0.711 0.306c 0.405 0 0.783 -0.126 0.981 -0.324c -0.351 -0.018 -0.423 -0.27 -0.423 -0.405c 0 -0.243 0.153 -0.423 0.423 -0.423c 0.234 0 0.405 0.162 0.405 0.432c 0 0.603 -0.711 0.954 -1.377 0.954c -1.161 0 -1.962 -1.026 -1.962 -2.088c 0 -0.981 0.747 -2.043 1.971 -2.043Z "/></symbol><symbol id="gB05A65E9B9DCB70494EDEBCC17A7EEF0" overflow="visible"><path d="M 0 0m 0.297 0v 0.279c 0.549 0 0.702 0.002540039 0.702 0.333v 2.529c 0 0.400754883 -0.099 0.459 -0.666 0.459v 0.279l 1.26 0.099v -3.366c 0 -0.324139801 0.135 -0.333 0.63 -0.333v -0.279c -0.207 0 -0.594 0.027 -0.945 0.027c -0.315 0 -0.765 -0.027 -0.981 -0.027Z m 0.864 5.067c 0.279 0 0.468 0.198 0.468 0.477c 0 0.306 -0.243 0.468 -0.477 0.468c -0.234 0 -0.468 -0.153 -0.468 -0.468c 0 -0.225 0.135 -0.477 0.477 -0.477Z "/></symbol><symbol id="gE7B9C7C0FFA1C6387431E1F5139D63BA" overflow="visible"><path d="M 0 0m 3.564 2.538c 0 0.369 -0.036 0.711 -0.297 0.972c -0.333 0.333 -0.693 0.522 -1.341 0.522c -0.522 0 -1.278 -0.351 -1.278 -1.008c 0 -0.279 0.162 -0.432 0.414 -0.432c 0.252 0 0.414 0.162 0.414 0.423c 0 0.216 -0.153 0.405 -0.459 0.405c 0.216 0.27 0.621 0.414 0.945 0.414c 0.486 0 0.981 -0.387 0.981 -1.116v -0.369c -1.998 -0.054 -2.556 -0.882 -2.556 -1.485c 0 -0.756 0.864 -0.963 1.422 -0.963c 0.504 0 0.999 0.261 1.197 0.783c 0.009 -0.171 0.153 -0.738 0.711 -0.738c 0.27 0 0.729 0.198 0.729 0.846v 0.513h -0.225v -0.513c 0 -0.468 -0.207 -0.567 -0.315 -0.567c -0.18 0 -0.342 0.117 -0.342 0.621Z m -0.621 -1.278c 0 -0.792 -0.585 -1.161 -1.062 -1.161c -0.495 0 -0.801 0.378975586 -0.801 0.774c 0 0.432 0.324 1.224 1.863 1.287Z "/></symbol><symbol id="g3E394391E01B3AAF023A58424F90F9CA" overflow="visible"><path d="M 0 0m 1.593 0.693c 0 -0.396 0.063 -0.414 0.702 -0.414v -0.279c -0.225 0 -0.648 0.027 -1.008 0.027c -0.36 0 -0.765 -0.027 -0.99 -0.027v 0.279c 0.603 0 0.702 0.027 0.702 0.36v 4.788c 0 0.423 -0.198 0.441 -0.702 0.441v 0.279l 1.296 0.099Z "/></symbol><symbol id="g9DCAD2B05394C25EE96FF9BEA25297A7" overflow="visible"><path d="M 0 0m 2.763 1.098v 0.531h 0.225v -0.531c 0 -0.666 -0.281293945 -1.197 -1.010425507 -1.197c -0.816574493 0 -1.041574493 0.666 -1.041574493 1.251v 2.448h -0.765v 0.198c 0.792 0.027 1.152 0.855 1.161 1.737h 0.225v -1.647h 1.287v -0.288h -1.287v -2.547c 0 -0.468 0.162 -0.927 0.583443375 -0.927c 0.445544907 0 0.622556625 0.513 0.622556625 0.972Z "/></symbol><symbol id="g51F09839BC673D286E7D50E7467ED61B" overflow="visible"><path d="M 0 0m 2.25 0.126c -0.54 0 -0.954 0.369 -1.116 0.81c -0.099 0.279 -0.135 0.594 -0.135 1.17c 0 0.576 0.072 0.954 0.315 1.26c 0.191035217 0.240562958 0.531 0.468 0.909 0.468c 0.378 0 0.792 -0.207 0.954 -0.468c 0.243 -0.306 0.315 -0.684 0.315 -1.26c 0 -0.576 -0.036 -0.891 -0.135 -1.17c -0.162 -0.441 -0.567 -0.81 -1.107 -0.81Z m 1.989 1.8c 0 1.152 -0.9 2.106 -1.989 2.106c -1.125 0 -1.998 -0.981 -1.998 -2.106c 0 -1.161 0.936 -2.025 1.989 -2.025c 1.089 0 1.998 0.882 1.998 2.025Z "/></symbol><symbol id="g7059B17DFD549B7742B875C34A657FAC" overflow="visible"><path d="M 0 0m 4.113 2.718c 0 0.909 -0.423 1.26 -1.251 1.26c -0.666 0 -1.089 -0.45 -1.305 -0.945v 0.945l -1.269 -0.099v -0.279h 0.117c 0.576 0 0.585 -0.155847656 0.585 -0.531v -2.403c 0 -0.378 -0.099 -0.387 -0.702 -0.387v -0.279c 0.207 0 0.792 0.027 1.008 0.027c 0.162 0 0.9 -0.027 1.017 -0.027v 0.279c -0.594 0 -0.702 0.022940277 -0.702 0.369v 1.674c 0 0.909 0.621 1.44 1.215 1.44c 0.414 0 0.666 -0.272975098 0.666 -0.927v -2.187c 0 -0.358250977 -0.108 -0.369 -0.702 -0.369v -0.279c 0.207 0.009 0.702 0.027 1.098 0.027c 0.162 0 0.81 -0.018 0.927 -0.027v 0.279h -0.162c -0.486 0 -0.54 0.099533249 -0.54 0.324Z "/></symbol><symbol id="g93020333A3722A63B3248409568B4E65" overflow="visible"><path d="M 0 0m 2.421 5.994c -0.369 -0.378 -0.909 -0.567 -1.62 -0.567v -0.351c 0.468 0 0.855 0.072 1.152 0.216v -4.554c 0 -0.162 -0.036 -0.27 -0.117 -0.315c -0.081 -0.045 -0.306 -0.072 -0.666 -0.072h -0.315v -0.351c 0.225 0.018 0.711 0.027 1.458 0.027c 0.747 0 1.233 -0.009 1.458 -0.027v 0.351h -0.315c -0.369 0 -0.594 0.027 -0.666 0.072c -0.072 0.045 -0.117 0.153 -0.117 0.315v 4.986c 0 0.216 -0.018 0.27 -0.252 0.27Z "/></symbol><symbol id="g40DB25CD2B59AB3B3B2718087D4E7C07" overflow="visible"><path d="M 0 0m 1.728 3.402c 0 0.261 -0.216 0.477 -0.477 0.477c -0.261 0 -0.477 -0.216 -0.477 -0.477c 0 -0.261 0.216 -0.477 0.477 -0.477c 0.261 0 0.477 0.216 0.477 0.477Z m 0 -2.925c 0 0.261 -0.216 0.477 -0.477 0.477c -0.261 0 -0.477 -0.216 -0.477 -0.477c 0 -0.261 0.216 -0.477 0.477 -0.477c 0.261 0 0.477 0.216 0.477 0.477Z "/></symbol><symbol id="g101D38A8742CB44153F60927B2FD4196" overflow="visible"><path d="M 0 0m 3.789 0c 0.027 0.171 0.252 1.566 0.252 1.566h -0.225c 0 0 -0.117 -0.747 -0.207 -0.81c -0.036865448 -0.025805786 -0.189 -0.063 -0.864 -0.063h -1.602l 0.549 0.531c 1.47258847 1.424306854 2.349 1.899087891 2.349 3.024c 0 1.062 -0.845918152 1.746 -1.908 1.746c -1.017 0 -1.683 -0.801 -1.683 -1.638c 0 -0.387 0.27 -0.495 0.477 -0.495c 0.234 0 0.468 0.171 0.468 0.477c 0 0.279 -0.216 0.468 -0.459 0.468c -0.045 0 -0.09 0 -0.135 -0.009c 0.306 0.819 0.945 0.918 1.233 0.918c 1.035 0 1.188 -1.139397858 1.188 -1.467c 0 -0.785511475 -0.520406982 -1.516387939 -1.125000137 -2.186999863l -1.575 -1.755c -0.067909653 -0.075670807 -0.072 -0.108 -0.072 -0.306Z "/></symbol><symbol id="g471AB65612D8F26489435CB642BA4E21" overflow="visible"><path d="M 0 0m 1.539 3.276c -0.089613281 0.222486328 0.081 0.324 0.486 0.324v 0.279c -0.234 0 -0.792 -0.027 -1.035 -0.027c -0.162 0 -0.594 0.009 -0.819 0.027v -0.279h 0.054c 0.405 0 0.542374283 -0.03670752 0.63 -0.252l 1.35 -3.321c 0.025806885 -0.063485046 0.054 -0.126 0.162 -0.126c 0.081 0 0.139391235 0.025230377 0.18 0.126l 1.215 3.015c 0.087457764 0.217024475 0.279 0.558 0.81 0.558v 0.279c -0.171 -0.018 -0.405 -0.027 -0.675 -0.027c -0.135 0 -0.702 0.027 -0.783 0.027v -0.279c 0.351 0 0.503819275 -0.28792804 0.396 -0.558l -0.936 -2.34Z "/></symbol><symbol id="gC0A3BADC8CC2E8A801C9EFE70CA8CA50" overflow="visible"><path d="M 0 0m 3.015 3.888v -1.035c 0 -0.126 -0.018 -0.162 -0.108 -0.162c -0.108 0 -0.126 0.054 -0.126 0.153c 0 0.135 -0.045 1.017 -1.026 1.017c -0.738 0 -1.026 -0.324 -1.026 -0.675c 0 -0.369 0.306 -0.54 0.576 -0.621c 0.422753082 -0.126825897 0.639 -0.117 1.044 -0.252c 0.572625 -0.19087207 0.891 -0.648 0.891 -1.152c 0 -0.603 -0.342 -1.26 -1.458 -1.26c -0.432 0 -0.738 0.144 -0.981 0.387c -0.280817825 -0.324020462 -0.336523178 -0.388295975 -0.425415619 -0.388295975c -0.05047229 0 -0.078584381 0.030677261 -0.078584381 0.190295975v 1.251c 0 0.161992447 0.027 0.189 0.117 0.189c 0.072 0 0.095171814 -0.018773026 0.117 -0.117c 0.072 -0.324 0.174165848 -0.610229965 0.294785156 -0.801c 0.290214844 -0.459 0.708755493 -0.513 0.965214844 -0.513c 0.603 0 1.017 0.279 1.017 0.819c 0 0.414 -0.297 0.639 -0.684 0.765c -0.24356044 0.079298767 -0.882 0.135 -1.26 0.351c -0.297 0.171 -0.567 0.468 -0.567 0.882c 0 0.477 0.297 1.116 1.449 1.116c 0.387 0 0.63 -0.108 0.837 -0.252c 0.234 0.225 0.267477539 0.252 0.333 0.252c 0.054 0 0.099 -0.009 0.099 -0.144Z "/></symbol><symbol id="g6EEBC0A4D3D4029D018AE3D0B5DF8FCE" overflow="visible"><path d="M 0 0m 4.446 0v 0.423h -1.26v 5.184c 0 0.198 0 0.288 -0.234 0.288c -0.099 0 -0.117 0 -0.198 -0.063c -0.693 -0.513 -1.62 -0.513 -1.809 -0.513h -0.18v -0.423h 0.18c 0.144 0 0.639 0.009 1.17 0.18v -4.653h -1.251v -0.423c 0.396 0.027 1.35 0.027 1.791 0.027c 0.441 0 1.395 0 1.791 -0.027Z "/></symbol><symbol id="g1CB6D3579CA06DCF1B0DB2EB77B8DCD7" overflow="visible"><path d="M 0 0m 3.619 1.554h -0.329c -0.021 -0.14 -0.084 -0.588 -0.182 -0.637c -0.077 -0.042 -0.602 -0.042 -0.714 -0.042h -1.029c 0.329 0.273 0.693 0.574 1.008 0.805c 0.798 0.588 1.246 0.917 1.246 1.582c 0 0.805 -0.728 1.323 -1.715 1.323c -0.847 0 -1.505 -0.434 -1.505 -1.064c 0 -0.413 0.336 -0.518 0.504 -0.518c 0.224 0 0.504 0.154 0.504 0.504c 0 0.364 -0.294 0.476 -0.399 0.504c 0.203 0.168 0.469 0.245 0.721 0.245c 0.602 0 0.924 -0.476 0.924 -1.001c 0 -0.483 -0.266 -0.959 -0.756 -1.456l -1.407 -1.435c -0.091 -0.084 -0.091 -0.098 -0.091 -0.238v -0.126h 3.003Z "/></symbol><symbol id="g6B7358DE8FA5C1C77FC642525C9024B4" overflow="visible"><path d="M 0 0m 4.734 1.62c 0 0.495 -0.261 1.269 -1.566 1.548c 0.621 0.189 1.278 0.702 1.278 1.476c 0 0.693 -0.684 1.251 -1.953 1.251c -1.071 0 -1.773 -0.576 -1.773 -1.296c 0 -0.387 0.279 -0.63 0.621 -0.63c 0.405 0 0.63 0.288 0.63 0.621c 0 0.522 -0.486 0.621 -0.522 0.63c 0.315 0.252 0.711 0.324 0.99 0.324c 0.747 0 0.81 -0.576 0.81 -0.873c 0 -0.117 -0.045 -1.296 -0.981 -1.35c -0.369 -0.018 -0.387 -0.027 -0.432 -0.036c -0.09 -0.009 -0.108 -0.099 -0.108 -0.153c 0 -0.162 0.09 -0.162 0.252 -0.162h 0.396c 0.981 0 1.017 -0.882 1.017 -1.341c 0 -0.423 -0.036 -1.341 -0.972 -1.341c -0.234 0 -0.702 0.036 -1.134 0.306c 0.297 0.081 0.522 0.306 0.522 0.675c 0 0.405 -0.288 0.684 -0.684 0.684c -0.378 0 -0.693 -0.243 -0.693 -0.702c 0 -0.81 0.873 -1.35 2.034 -1.35c 1.611 0 2.268 0.9 2.268 1.719Z "/></symbol><symbol id="g37B0C1333AE2E95F0FD150BF103F9411" overflow="visible"><path d="M 0 0m 3.705 0v 0.3525h -1.05v 4.32c 0 0.165 0 0.24 -0.195 0.24c -0.0825 0 -0.0975 0 -0.165 -0.0525c -0.5775 -0.4275 -1.35 -0.4275 -1.5075 -0.4275h -0.15v -0.3525h 0.15c 0.12 0 0.5325 0.0075 0.975 0.15v -3.8775h -1.0425v -0.3525c 0.33 0.0225 1.125 0.0225 1.4925 0.0225c 0.3675 0 1.1625 0 1.4925 -0.0225Z "/></symbol><symbol id="g90D2898789002F5EE2CBAF22BB02F058" overflow="visible"><path d="M 0 0m 3.8775 1.665h -0.3525c -0.0225 -0.15 -0.09 -0.63 -0.195 -0.6825c -0.0825 -0.045 -0.645 -0.045 -0.765 -0.045h -1.1025c 0.3525 0.2925 0.7425 0.615 1.08 0.8625c 0.855 0.63 1.335 0.9825 1.335 1.695c 0 0.8625 -0.78 1.4175 -1.8375 1.4175c -0.9075 0 -1.6125 -0.465 -1.6125 -1.14c 0 -0.4425 0.36 -0.555 0.54 -0.555c 0.24 0 0.54 0.165 0.54 0.54c 0 0.39 -0.315 0.51 -0.4275 0.54c 0.2175 0.18 0.5025 0.2625 0.7725 0.2625c 0.645 0 0.99 -0.51 0.99 -1.0725c 0 -0.5175 -0.285 -1.0275 -0.81 -1.56l -1.5075 -1.5375c -0.0975 -0.09 -0.0975 -0.105 -0.0975 -0.255v -0.135h 3.2175Z "/></symbol><symbol id="g1F54E5D64D8571579E9642DF6AE8D01B" overflow="visible"><path d="M 0 0m 3.945 1.35c 0 0.4125 -0.2175 1.0575 -1.305 1.29c 0.5175 0.1575 1.065 0.585 1.065 1.23c 0 0.5775 -0.57 1.0425 -1.6275 1.0425c -0.8925 0 -1.4775 -0.48 -1.4775 -1.08c 0 -0.3225 0.2325 -0.525 0.5175 -0.525c 0.3375 0 0.525 0.24 0.525 0.5175c 0 0.435 -0.405 0.5175 -0.435 0.525c 0.2625 0.21 0.5925 0.27 0.825 0.27c 0.6225 0 0.675 -0.48 0.675 -0.7275c 0 -0.0975 -0.0375 -1.08 -0.8175 -1.125c -0.3075 -0.015 -0.3225 -0.0225 -0.36 -0.03c -0.075 -0.0075 -0.09 -0.0825 -0.09 -0.1275c 0 -0.135 0.075 -0.135 0.21 -0.135h 0.33c 0.8175 0 0.8475 -0.735 0.8475 -1.1175c 0 -0.3525 -0.03 -1.1175 -0.81 -1.1175c -0.195 0 -0.585 0.03 -0.945 0.255c 0.2475 0.0675 0.435 0.255 0.435 0.5625c 0 0.3375 -0.24 0.57 -0.57 0.57c -0.315 0 -0.5775 -0.2025 -0.5775 -0.585c 0 -0.675 0.7275 -1.125 1.695 -1.125c 1.3425 0 1.89 0.75 1.89 1.4325Z "/></symbol><symbol id="gC364F1F2E60BB1AC87930E5E4B1CD4F1" overflow="visible"><path d="M 0 0m 4.088 0.736c 0 0.064 -0.128 0.208 -0.2 0.208c -0.048 0 -0.064 -0.024 -0.12 -0.088c -0.432 -0.456 -1.056 -0.632 -1.68 -0.632c -0.576 0 -0.784 0.32 -0.784 0.776c 0 0.152 0.032 0.416 0.12 0.744h 0.352c 0.536 0 1.056 0.048 1.392 0.16c 0.68 0.232 0.792 0.688 0.792 0.944c 0 0.464 -0.44 0.768 -1.096 0.768c -1.448 0 -2.472 -1 -2.472 -2.24c 0 -0.92 0.616 -1.44 1.672 -1.44c 0.208 0 0.76 0.008 1.24 0.192c 0.464 0.184 0.784 0.512 0.784 0.608Z m -0.608 2.104c 0 -0.808 -1.208 -0.808 -1.984 -0.808c 0.144 0.584 0.336 0.8 0.472 0.928c 0.28 0.28 0.648 0.368 0.896 0.368c 0.288 0 0.616 -0.128 0.616 -0.488Z "/></symbol><symbol id="gB857CD5703F41BDF509E4EE0489893D" overflow="visible"><path d="M 0 0m 1.6968 3.7184c -0.2408 -0.2352 -0.5992 -0.3528 -1.0864 -0.3528v -0.2464c 0.3304 0 0.5936 0.0504 0.7952 0.1456v -2.7888c 0 -0.0728 -0.0056 -0.1176 -0.0224 -0.14c -0.028 -0.0616 -0.196 -0.0952 -0.504 -0.0952h -0.2296v -0.2408l 0.9968 0.0224l 1.0024 -0.0224v 0.2408h -0.2296c -0.308 0 -0.476 0.0336 -0.5096 0.0952c -0.0112 0.0224 -0.0168 0.0672 -0.0168 0.14v 3.0632c 0 0.1512 -0.0224 0.1792 -0.196 0.1792Z "/></symbol><symbol id="gD16162A8E6BC5125899DC596673576EF" overflow="visible"><path d="M 0 0m 0.6664 2.3744c 0.1792 0 0.3136 0.1344 0.3136 0.3136c 0 0.2016 -0.1064 0.308 -0.3136 0.3136c 0.1232 0.2632 0.4032 0.476 0.7672 0.476c 0.4928 0 0.8176 -0.3696 0.8176 -0.8624c 0 -0.2688 -0.0952 -0.5264 -0.2912 -0.7784c -0.0952 -0.1288 -0.168 -0.2184 -0.2184 -0.2688l -1.3272 -1.316c -0.0728 -0.0672 -0.0616 -0.084 -0.0616 -0.252h 2.3072l 0.1736 1.0528h -0.2352c -0.0392 -0.2968 -0.084 -0.4704 -0.1344 -0.5096c -0.028 -0.0168 -0.2016 -0.028 -0.532 -0.028h -0.952c 0.3752 0.3304 0.7224 0.6272 1.0528 0.8904c 0.252 0.196 0.4312 0.3696 0.5432 0.5208c 0.168 0.2184 0.252 0.448 0.252 0.6888c 0 0.3472 -0.1344 0.6216 -0.4088 0.8232c -0.2408 0.1848 -0.5432 0.28 -0.9016 0.28c -0.308 0 -0.5712 -0.0896 -0.8008 -0.2688c -0.2408 -0.196 -0.364 -0.4424 -0.364 -0.7448c 0 -0.1904 0.14 -0.3304 0.3136 -0.3304Z "/></symbol><symbol id="g8620D4FBE966A3B5BE9D3ED2CA359DA3" overflow="visible"><path d="M 0 0m 1.9768 1.9768c 0.3752 0.1512 0.7336 0.4816 0.7336 0.9576c 0 0.252 -0.1344 0.4536 -0.3976 0.5992c -0.2184 0.1232 -0.4648 0.1848 -0.7392 0.1848c -0.2744 0 -0.5152 -0.056 -0.7224 -0.1736c -0.252 -0.14 -0.3808 -0.336 -0.3808 -0.588c 0 -0.2128 0.1064 -0.3192 0.3136 -0.3192c 0.1736 0 0.3024 0.1344 0.3024 0.308c 0 0.1736 -0.0896 0.2744 -0.2632 0.3024c 0.1624 0.1736 0.4032 0.2632 0.7336 0.2632c 0.364 0 0.5712 -0.2184 0.5712 -0.5768c 0 -0.2632 -0.0728 -0.476 -0.2128 -0.644c -0.1568 -0.1848 -0.2688 -0.2128 -0.5936 -0.2352c -0.1512 -0.0112 -0.252 0.0056 -0.252 -0.1064c 0 -0.0672 0.056 -0.1008 0.1624 -0.1008h 0.2968c 0.4816 0 0.7168 -0.364 0.7168 -0.868c 0 -0.4928 -0.224 -0.868 -0.6944 -0.868c -0.4088 0 -0.7056 0.112 -0.8904 0.3416c 0.196 0.0224 0.2968 0.1344 0.2968 0.3304c 0 0.1848 -0.14 0.3248 -0.3248 0.3248c -0.2184 0 -0.3304 -0.112 -0.3304 -0.3416c 0 -0.2856 0.1456 -0.5152 0.4312 -0.6776c 0.2408 -0.1344 0.5152 -0.2016 0.8288 -0.2016c 0.3416 0 0.6384 0.0952 0.896 0.2856c 0.28 0.2072 0.42 0.476 0.42 0.8064c 0 0.5208 -0.4536 0.8792 -0.9016 0.9968Z "/></symbol><symbol id="gCDBE20FAB3D5F8F6AE29EAF95EE205F0" overflow="visible"><path d="M 0 0m 3.9675 2.3925c 0 0.7275 -0.0075 2.52 -1.815 2.52c -1.8075 0 -1.815 -1.785 -1.815 -2.52c 0 -0.7425 0.0075 -2.475 1.815 -2.475c 1.8 0 1.815 1.725 1.815 2.475Z m -0.96 0.09c 0 -0.42 0 -1.1025 -0.0525 -1.4925c -0.105 -0.6975 -0.5775 -0.8025 -0.8025 -0.8025c -0.27 0 -0.69 0.165 -0.7875 0.7125c -0.0675 0.39 -0.0675 1.17 -0.0675 1.5825c 0 0.54 0 1.0275 0.06 1.4175c 0.09 0.6675 0.615 0.7425 0.795 0.7425c 0.2775 0 0.585 -0.1425 0.7275 -0.4725c 0.1275 -0.2775 0.1275 -1.0725 0.1275 -1.6875Z "/></symbol><symbol id="g3DC8A4469CA6EB96779304475843886E" overflow="visible"><path d="M 0 0m 2.933 0v 0.217c -0.836609375 0.003561523 -0.875 0.034350586 -0.875 0.343v 3.983c 0 0.084 -0.021 0.119 -0.098 0.119h -0.063c -0.21 -0.189 -0.511 -0.448 -1.274 -0.448v -0.217c 0.567 0 0.845957306 0.13571814 0.917 0.189v -3.626c 0 -0.294669922 -0.017452148 -0.339438477 -0.875 -0.343v -0.217c 0.154 0 0.847 0.021 1.029 0.021c 0.434 0 0.987 -0.021 1.239 -0.021Z "/></symbol><symbol id="gEE1C12DF893C22344B42C6188FC82023" overflow="visible"><path d="M 0 0m 2.133 5.994c -0.459 0 -0.846 -0.162 -1.179 -0.486c -0.333 -0.324 -0.504 -0.702 -0.504 -1.161c 0 -0.306 0.225 -0.531 0.504 -0.531c 0.27 0 0.495 0.234 0.495 0.504c 0 0.297 -0.216 0.504 -0.504 0.504c -0.027 0 -0.045 0 -0.063 -0.009c 0.171 0.441 0.567 0.828 1.134 0.828c 0.738 0 1.152 -0.639 1.152 -1.413c 0 -0.603 -0.306 -1.251 -0.918 -1.935l -1.692 -1.908c -0.117 -0.135 -0.108 -0.126 -0.108 -0.387h 3.339l 0.261 1.62h -0.297c -0.072 -0.459 -0.135 -0.72 -0.189 -0.801c -0.045 -0.045 -0.315 -0.063 -0.81 -0.063h -1.503l 0.873 0.855c 0.612 0.576 1.386 1.197 1.647 1.674c 0.18 0.315 0.27 0.63 0.27 0.945c 0 1.062 -0.828 1.764 -1.908 1.764Z "/></symbol><symbol id="g568CDDAF4E8C4679B9B9C27C586DEB8E" overflow="visible"><path d="M 0 0m 0.981 5.211c 0.288 0.45 0.9 0.558 1.224 0.558c 0.306 0 0.837 -0.189 0.837 -0.972c 0 -0.648 -0.243 -1.296 -0.702 -1.467c -0.125375977 -0.046705078 -0.234 -0.054 -0.531 -0.081c -0.216787033 -0.019707825 -0.306 0.018 -0.306 -0.117c 0 -0.036 0.009 -0.072 0.045 -0.09c 0.018 -0.009 0.369 -0.009 0.576 -0.009c 0.729 0 1.062 -0.639 1.062 -1.503c 0 -1.287 -0.702 -1.476 -1.044 -1.476c -0.396 0 -1.062 0.189 -1.35 0.684c 0.036 -0.009 0.063 -0.009 0.09 -0.009c 0.279 0 0.504 0.198 0.504 0.504c 0 0.297 -0.207 0.504 -0.513 0.504c -0.315 0 -0.495 -0.207 -0.495 -0.531c 0 -0.783 0.819 -1.404 1.818 -1.404c 0.972 0 1.917 0.693 1.917 1.755c 0 0.684 -0.522 1.404 -1.503 1.611c 0.72 0.225 1.26 0.864 1.26 1.584c 0 0.738 -0.792 1.242 -1.656 1.242c -0.954 0 -1.593 -0.576 -1.593 -1.215c 0 -0.288 0.18 -0.477 0.45 -0.477c 0.306 0 0.468 0.207 0.468 0.468c 0 0.225 -0.108 0.441 -0.558 0.441Z "/></symbol><symbol id="gE83F90B57F60E7FC407FF6E62CD18B9C" overflow="visible"><path d="M 0 0m 2.947 0c 0.021 0.133 0.196 1.218 0.196 1.218h -0.175c 0 0 -0.091 -0.581 -0.161 -0.63c -0.028673126 -0.020071167 -0.147 -0.049 -0.672 -0.049h -1.246l 0.427 0.413c 1.145346588 1.10779422 1.827 1.477068359 1.827 2.352c 0 0.826 -0.65793634 1.358 -1.484 1.358c -0.791 0 -1.309 -0.623 -1.309 -1.274c 0 -0.301 0.21 -0.385 0.371 -0.385c 0.182 0 0.364 0.133 0.364 0.371c 0 0.217 -0.168 0.364 -0.357 0.364c -0.035 0 -0.07 0 -0.105 -0.007c 0.238 0.637 0.735 0.714 0.959 0.714c 0.805 0 0.924 -0.886198334 0.924 -1.141c 0 -0.610953369 -0.404760986 -1.179412842 -0.875000107 -1.700999893l -1.225 -1.365c -0.052818619 -0.058855072 -0.056 -0.084 -0.056 -0.238Z "/></symbol><symbol id="g654CA12723E04161436B9C24DF1E59B8" overflow="visible"><path d="M 0 0m 2.727 3.177c 0.594 0.225 1.152 0.792 1.152 1.557c 0 0.387 -0.189 0.702 -0.558 0.945c -0.324 0.207 -0.693 0.315 -1.107 0.315c -0.405 0 -0.756 -0.108 -1.071 -0.315c -0.351 -0.234 -0.531 -0.54 -0.531 -0.927c 0 -0.297 0.198 -0.504 0.486 -0.504c 0.288 0 0.486 0.207 0.486 0.495c 0 0.297 -0.171 0.459 -0.513 0.477c 0.234 0.315 0.603 0.477 1.107 0.477c 0.54 0 0.81 -0.315 0.81 -0.954c 0 -0.378 -0.072 -0.693 -0.207 -0.954c -0.243 -0.432 -0.576 -0.513 -1.134 -0.513c -0.108 -0.018 -0.162 -0.063 -0.162 -0.144c 0 -0.135 0.063 -0.135 0.243 -0.135h 0.387c 0.675 0 1.017 -0.477 1.017 -1.44c 0 -0.765 -0.279 -1.431 -0.963 -1.431c -0.585 0 -1.017 0.198 -1.278 0.594c 0.315 -0.009 0.549 0.225 0.549 0.531c 0 0.306 -0.225 0.531 -0.531 0.531c -0.351 0 -0.531 -0.18 -0.531 -0.549c 0 -0.441 0.198 -0.792 0.594 -1.071c 0.351 -0.243 0.765 -0.36 1.224 -0.36c 0.513 0 0.954 0.171 1.341 0.504c 0.387 0.333 0.576 0.747 0.576 1.251c 0 0.846 -0.666 1.431 -1.386 1.62Z "/></symbol><symbol id="g1A41EFF28FBBAE64B59CDCABE7003CA3" overflow="visible"><path d="M 0 0m 3.771 0v 0.279c -1.075640625 0.004579102 -1.125 0.044165039 -1.125 0.441v 5.121c 0 0.108 -0.027 0.153 -0.126 0.153h -0.081c -0.27 -0.243 -0.657 -0.576 -1.638 -0.576v -0.279c 0.729 0 1.087659393 0.174494751 1.179 0.243v -4.662c 0 -0.378861328 -0.022438477 -0.436420898 -1.125 -0.441v -0.279c 0.198 0 1.089 0.027 1.323 0.027c 0.558 0 1.269 -0.027 1.593 -0.027Z "/></symbol></defs></svg>